<?xml version="1.0" encoding="UTF-8"?>
<svg width="1200px" height="630px" viewBox="0 0 1200 630" version="1.1" xmlns="http://www.w3.org/2000/svg" xmlns:xlink="http://www.w3.org/1999/xlink">
    <!-- Generator: Sketch 43.1 (39012) - http://www.bohemiancoding.com/sketch -->
    <title>Artboard 6</title>
    <desc>Created with Sketch.</desc>
    <defs>
        <rect id="path-1" x="0" y="0" width="1200" height="630"></rect>
        <rect id="path-2" x="0" y="0" width="944" height="281"></rect>
        <polygon id="path-4" points="0 0 394 0 394 435 107.921739 435 0 435 0 384.869888"></polygon>
        <polygon id="path-6" points="0 0 394 0 394 435 107.921739 435 0 435 0 384.869888"></polygon>
        <polygon id="path-8" points="194 0 588 0 588 435 301.921739 435 194 435 194 384.869888"></polygon>
        <polygon id="path-10" points="0 0 394 0 394 435 107.921739 435 0 435 0 384.869888"></polygon>
        <rect id="path-12" x="0" y="0" width="944" height="281"></rect>
        <polygon id="path-14" points="0 0 394 0 394 435 107.921739 435 0 435 0 384.869888"></polygon>
        <polygon id="path-16" points="0 0 394 0 394 435 107.921739 435 0 435 0 384.869888"></polygon>
        <polygon id="path-18" points="194 0 588 0 588 435 301.921739 435 194 435 194 384.869888"></polygon>
        <polygon id="path-20" points="0 0 394 0 394 435 107.921739 435 0 435 0 384.869888"></polygon>
        <rect id="path-22" x="0" y="0" width="944" height="281"></rect>
        <polygon id="path-24" points="0 0 394 0 394 435 107.921739 435 0 435 0 384.869888"></polygon>
        <polygon id="path-26" points="0 0 394 0 394 435 107.921739 435 0 435 0 384.869888"></polygon>
        <polygon id="path-28" points="194 0 588 0 588 435 301.921739 435 194 435 194 384.869888"></polygon>
        <polygon id="path-30" points="0 0 394 0 394 435 107.921739 435 0 435 0 384.869888"></polygon>
        <rect id="path-32" x="0" y="0" width="944" height="281"></rect>
        <polygon id="path-34" points="0 0 394 0 394 435 107.921739 435 0 435 0 384.869888"></polygon>
        <polygon id="path-36" points="0 0 394 0 394 435 107.921739 435 0 435 0 384.869888"></polygon>
        <polygon id="path-38" points="194 0 588 0 588 435 301.921739 435 194 435 194 384.869888"></polygon>
        <polygon id="path-40" points="0 0 394 0 394 435 107.921739 435 0 435 0 384.869888"></polygon>
    </defs>
    <g id="Page-1" stroke="none" stroke-width="1" fill="none" fill-rule="evenodd">
        <g id="Artboard-6">
            <g id="Rectangle-13">
                <use fill="#C3D7D3" fill-rule="evenodd" xlink:href="#path-1"></use>
                <rect stroke="#979797" stroke-width="1" x="0.5" y="0.5" width="1199" height="629"></rect>
            </g>
            <g id="Group-5" transform="translate(-328.000000, 464.000000)">
                <g id="Group-4" transform="translate(1246.000000, 140.500000) rotate(-180.000000) translate(-1246.000000, -140.500000) translate(774.000000, 0.000000)">
                    <mask id="mask-3" fill="white">
                        <use xlink:href="#path-2"></use>
                    </mask>
                    <g id="Rectangle-9"></g>
                    <g id="stairs" mask="url(#mask-3)">
                        <g transform="translate(-23.000000, -155.000000)">
                            <g id="Group">
                                <mask id="mask-5" fill="white">
                                    <use xlink:href="#path-4"></use>
                                </mask>
                                <g id="Rectangle-6"></g>
                                <path d="M346.400905,-76.84349 L430.866216,-76.84349 L430.866216,256 L124.971599,435.458645 C124.971599,435.458645 111.597618,362.387192 120.077188,343.395893 C128.556759,324.404595 346.400905,-76.84349 346.400905,-76.84349 Z" id="Rectangle-5" fill="#8EB8B1" mask="url(#mask-5)"></path>
                                <polygon id="Rectangle" fill="#E6F8F5" mask="url(#mask-5)" transform="translate(150.952244, 236.085756) rotate(25.000000) translate(-150.952244, -236.085756) " points="102.763701 217.673206 218.632781 220.92248 198.057898 254.498307 83.2717064 250.165942"></polygon>
                            </g>
                            <g id="Group-2" transform="translate(195.000000, 0.000000)">
                                <mask id="mask-7" fill="white">
                                    <use xlink:href="#path-6"></use>
                                </mask>
                                <g id="Rectangle-6"></g>
                                <path d="M346.400905,-76.84349 L430.866216,-76.84349 L430.866216,256 L124.971599,435.458645 C124.971599,435.458645 111.597618,362.387192 120.077188,343.395893 C128.556759,324.404595 346.400905,-76.84349 346.400905,-76.84349 Z" id="Rectangle-5" fill="#8EB8B1" mask="url(#mask-7)"></path>
                                <polygon id="Rectangle-4" fill="#CEE8E3" mask="url(#mask-7)" transform="translate(104.014435, 325.180804) rotate(27.000000) translate(-104.014435, -325.180804) " points="37.3371055 308.145396 152.204541 308.468392 170.691765 341.418976 54.779892 342.216211"></polygon>
                                <polygon id="Rectangle" fill="#E6F8F5" mask="url(#mask-7)" transform="translate(119.628437, 295.572878) rotate(25.000000) translate(-119.628437, -295.572878) " points="71.4398947 277.160328 187.308975 280.409601 166.734091 313.985428 51.9478999 309.653064"></polygon>
                                <polygon id="Rectangle-4" fill="#CEE8E3" mask="url(#mask-7)" transform="translate(135.338241, 265.693682) rotate(27.000000) translate(-135.338241, -265.693682) " points="68.6609119 248.658275 183.528348 248.98127 202.015571 281.931855 86.1036984 282.72909"></polygon>
                                <polygon id="Rectangle" fill="#E6F8F5" mask="url(#mask-7)" transform="translate(150.952244, 236.085756) rotate(25.000000) translate(-150.952244, -236.085756) " points="102.763701 217.673206 218.632781 220.92248 198.057898 254.498307 83.2717064 250.165942"></polygon>
                                <polygon id="Rectangle-4" fill="#CEE8E3" mask="url(#mask-7)" transform="translate(72.902127, 387.483427) rotate(27.000000) translate(-72.902127, -387.483427) " points="4.75815596 368.035416 119.625592 368.358412 141.046098 406.601236 24.6590482 406.931438"></polygon>
                                <polygon id="Rectangle" fill="#E6F8F5" mask="url(#mask-7)" transform="translate(88.304631, 355.059999) rotate(25.000000) translate(-88.304631, -355.059999) " points="40.1160883 336.647449 155.985168 339.896723 135.410285 373.47255 20.6240935 369.140185"></polygon>
                                <mask id="mask-9" fill="white">
                                    <use xlink:href="#path-8"></use>
                                </mask>
                                <g id="Rectangle-6"></g>
                                <path d="M540.400905,-76.84349 L624.866216,-76.84349 L624.866216,256 L318.971599,435.458645 C318.971599,435.458645 305.597618,362.387192 314.077188,343.395893 C322.556759,324.404595 540.400905,-76.84349 540.400905,-76.84349 Z" id="Rectangle-5" fill="#8EB8B1" mask="url(#mask-9)"></path>
                                <polygon id="Rectangle-4" fill="#CEE8E3" mask="url(#mask-9)" transform="translate(298.014435, 325.180804) rotate(27.000000) translate(-298.014435, -325.180804) " points="231.337105 308.145396 346.204541 308.468392 364.691765 341.418976 248.779892 342.216211"></polygon>
                                <polygon id="Rectangle" fill="#E6F8F5" mask="url(#mask-9)" transform="translate(313.628437, 295.572878) rotate(25.000000) translate(-313.628437, -295.572878) " points="265.439895 277.160328 381.308975 280.409601 360.734091 313.985428 245.9479 309.653064"></polygon>
                                <polygon id="Rectangle-4" fill="#CEE8E3" mask="url(#mask-9)" transform="translate(329.338241, 265.693682) rotate(27.000000) translate(-329.338241, -265.693682) " points="262.660912 248.658275 377.528348 248.98127 396.015571 281.931855 280.103698 282.72909"></polygon>
                                <polygon id="Rectangle" fill="#E6F8F5" mask="url(#mask-9)" transform="translate(344.952244, 236.085756) rotate(25.000000) translate(-344.952244, -236.085756) " points="296.763701 217.673206 412.632781 220.92248 392.057898 254.498307 277.271706 250.165942"></polygon>
                                <polygon id="Rectangle-4" fill="#CEE8E3" mask="url(#mask-9)" transform="translate(266.902127, 387.483427) rotate(27.000000) translate(-266.902127, -387.483427) " points="198.758156 368.035416 313.625592 368.358412 335.046098 406.601236 218.659048 406.931438"></polygon>
                                <polygon id="Rectangle" fill="#E6F8F5" mask="url(#mask-9)" transform="translate(282.304631, 355.059999) rotate(25.000000) translate(-282.304631, -355.059999) " points="234.116088 336.647449 349.985168 339.896723 329.410285 373.47255 214.624094 369.140185"></polygon>
                            </g>
                            <g id="Group-3" transform="translate(582.000000, 0.000000)">
                                <mask id="mask-11" fill="white">
                                    <use xlink:href="#path-10"></use>
                                </mask>
                                <g id="Rectangle-6"></g>
                                <path d="M346.400905,-76.84349 L430.866216,-76.84349 L430.866216,256 L124.971599,435.458645 C124.971599,435.458645 111.597618,362.387192 120.077188,343.395893 C128.556759,324.404595 346.400905,-76.84349 346.400905,-76.84349 Z" id="Rectangle-5" fill="#8EB8B1" mask="url(#mask-11)"></path>
                                <polygon id="Rectangle-4" fill="#CEE8E3" mask="url(#mask-11)" transform="translate(104.014435, 325.180804) rotate(27.000000) translate(-104.014435, -325.180804) " points="37.3371055 308.145396 152.204541 308.468392 170.691765 341.418976 54.779892 342.216211"></polygon>
                                <polygon id="Rectangle" fill="#E6F8F5" mask="url(#mask-11)" transform="translate(119.628437, 295.572878) rotate(25.000000) translate(-119.628437, -295.572878) " points="71.4398947 277.160328 187.308975 280.409601 166.734091 313.985428 51.9478999 309.653064"></polygon>
                                <polygon id="Rectangle-4" fill="#CEE8E3" mask="url(#mask-11)" transform="translate(135.338241, 265.693682) rotate(27.000000) translate(-135.338241, -265.693682) " points="68.6609119 248.658275 183.528348 248.98127 202.015571 281.931855 86.1036984 282.72909"></polygon>
                                <polygon id="Rectangle" fill="#E6F8F5" mask="url(#mask-11)" transform="translate(150.952244, 236.085756) rotate(25.000000) translate(-150.952244, -236.085756) " points="102.763701 217.673206 218.632781 220.92248 198.057898 254.498307 83.2717064 250.165942"></polygon>
                                <polygon id="Rectangle-4" fill="#CEE8E3" mask="url(#mask-11)" transform="translate(72.902127, 387.483427) rotate(27.000000) translate(-72.902127, -387.483427) " points="4.75815596 368.035416 119.625592 368.358412 141.046098 406.601236 24.6590482 406.931438"></polygon>
                                <polygon id="Rectangle" fill="#E6F8F5" mask="url(#mask-11)" transform="translate(88.304631, 355.059999) rotate(25.000000) translate(-88.304631, -355.059999) " points="40.1160883 336.647449 155.985168 339.896723 135.410285 373.47255 20.6240935 369.140185"></polygon>
                            </g>
                        </g>
                    </g>
                </g>
                <g id="Group-4-Copy-2" transform="translate(472.000000, 140.500000) rotate(-180.000000) translate(-472.000000, -140.500000) ">
                    <mask id="mask-13" fill="white">
                        <use xlink:href="#path-12"></use>
                    </mask>
                    <g id="Rectangle-9"></g>
                    <g id="stairs" mask="url(#mask-13)">
                        <g transform="translate(-23.000000, -155.000000)">
                            <g id="Group">
                                <mask id="mask-15" fill="white">
                                    <use xlink:href="#path-14"></use>
                                </mask>
                                <g id="Rectangle-6"></g>
                                <path d="M346.400905,-76.84349 L430.866216,-76.84349 L430.866216,256 L124.971599,435.458645 C124.971599,435.458645 111.597618,362.387192 120.077188,343.395893 C128.556759,324.404595 346.400905,-76.84349 346.400905,-76.84349 Z" id="Rectangle-5" fill="#8EB8B1" mask="url(#mask-15)"></path>
                                <polygon id="Rectangle-4" fill="#CEE7E3" mask="url(#mask-15)" transform="translate(104.014435, 325.180804) rotate(27.000000) translate(-104.014435, -325.180804) " points="37.3371055 308.145396 152.204541 308.468392 170.691765 341.418976 54.779892 342.216211"></polygon>
                                <polygon id="Rectangle" fill="#E6F8F5" mask="url(#mask-15)" transform="translate(119.628437, 295.572878) rotate(25.000000) translate(-119.628437, -295.572878) " points="71.4398947 277.160328 187.308975 280.409601 166.734091 313.985428 51.9478999 309.653064"></polygon>
                                <polygon id="Rectangle-4" fill="#CEE8E3" mask="url(#mask-15)" transform="translate(135.338241, 265.693682) rotate(27.000000) translate(-135.338241, -265.693682) " points="68.6609119 248.658275 183.528348 248.98127 202.015571 281.931855 86.1036984 282.72909"></polygon>
                                <polygon id="Rectangle" fill="#E6F8F5" mask="url(#mask-15)" transform="translate(150.952244, 236.085756) rotate(25.000000) translate(-150.952244, -236.085756) " points="102.763701 217.673206 218.632781 220.92248 198.057898 254.498307 83.2717064 250.165942"></polygon>
                                <polygon id="Rectangle-4" fill="#CEE7E3" mask="url(#mask-15)" transform="translate(72.902127, 387.483427) rotate(27.000000) translate(-72.902127, -387.483427) " points="4.75815596 368.035416 119.625592 368.358412 141.046098 406.601236 24.6590482 406.931438"></polygon>
                                <polygon id="Rectangle" fill="#E6F8F5" mask="url(#mask-15)" transform="translate(88.304631, 355.059999) rotate(25.000000) translate(-88.304631, -355.059999) " points="40.1160883 336.647449 155.985168 339.896723 135.410285 373.47255 20.6240935 369.140185"></polygon>
                            </g>
                            <g id="Group-2" transform="translate(195.000000, 0.000000)">
                                <mask id="mask-17" fill="white">
                                    <use xlink:href="#path-16"></use>
                                </mask>
                                <g id="Rectangle-6"></g>
                                <path d="M346.400905,-76.84349 L430.866216,-76.84349 L430.866216,256 L124.971599,435.458645 C124.971599,435.458645 111.597618,362.387192 120.077188,343.395893 C128.556759,324.404595 346.400905,-76.84349 346.400905,-76.84349 Z" id="Rectangle-5" fill="#8EB8B1" mask="url(#mask-17)"></path>
                                <polygon id="Rectangle-4" fill="#CEE8E3" mask="url(#mask-17)" transform="translate(104.014435, 325.180804) rotate(27.000000) translate(-104.014435, -325.180804) " points="37.3371055 308.145396 152.204541 308.468392 170.691765 341.418976 54.779892 342.216211"></polygon>
                                <polygon id="Rectangle" fill="#E6F8F5" mask="url(#mask-17)" transform="translate(119.628437, 295.572878) rotate(25.000000) translate(-119.628437, -295.572878) " points="71.4398947 277.160328 187.308975 280.409601 166.734091 313.985428 51.9478999 309.653064"></polygon>
                                <polygon id="Rectangle-4" fill="#CEE8E3" mask="url(#mask-17)" transform="translate(135.338241, 265.693682) rotate(27.000000) translate(-135.338241, -265.693682) " points="68.6609119 248.658275 183.528348 248.98127 202.015571 281.931855 86.1036984 282.72909"></polygon>
                                <polygon id="Rectangle" fill="#E6F8F5" mask="url(#mask-17)" transform="translate(150.952244, 236.085756) rotate(25.000000) translate(-150.952244, -236.085756) " points="102.763701 217.673206 218.632781 220.92248 198.057898 254.498307 83.2717064 250.165942"></polygon>
                                <polygon id="Rectangle-4" fill="#CEE8E3" mask="url(#mask-17)" transform="translate(72.902127, 387.483427) rotate(27.000000) translate(-72.902127, -387.483427) " points="4.75815596 368.035416 119.625592 368.358412 141.046098 406.601236 24.6590482 406.931438"></polygon>
                                <polygon id="Rectangle" fill="#E6F8F5" mask="url(#mask-17)" transform="translate(88.304631, 355.059999) rotate(25.000000) translate(-88.304631, -355.059999) " points="40.1160883 336.647449 155.985168 339.896723 135.410285 373.47255 20.6240935 369.140185"></polygon>
                                <mask id="mask-19" fill="white">
                                    <use xlink:href="#path-18"></use>
                                </mask>
                                <g id="Rectangle-6"></g>
                                <path d="M540.400905,-76.84349 L624.866216,-76.84349 L624.866216,256 L318.971599,435.458645 C318.971599,435.458645 305.597618,362.387192 314.077188,343.395893 C322.556759,324.404595 540.400905,-76.84349 540.400905,-76.84349 Z" id="Rectangle-5" fill="#8EB8B1" mask="url(#mask-19)"></path>
                                <polygon id="Rectangle-4" fill="#CEE8E3" mask="url(#mask-19)" transform="translate(298.014435, 325.180804) rotate(27.000000) translate(-298.014435, -325.180804) " points="231.337105 308.145396 346.204541 308.468392 364.691765 341.418976 248.779892 342.216211"></polygon>
                                <polygon id="Rectangle" fill="#E6F8F5" mask="url(#mask-19)" transform="translate(313.628437, 295.572878) rotate(25.000000) translate(-313.628437, -295.572878) " points="265.439895 277.160328 381.308975 280.409601 360.734091 313.985428 245.9479 309.653064"></polygon>
                                <polygon id="Rectangle-4" fill="#CEE8E3" mask="url(#mask-19)" transform="translate(329.338241, 265.693682) rotate(27.000000) translate(-329.338241, -265.693682) " points="262.660912 248.658275 377.528348 248.98127 396.015571 281.931855 280.103698 282.72909"></polygon>
                                <polygon id="Rectangle" fill="#E6F8F5" mask="url(#mask-19)" transform="translate(344.952244, 236.085756) rotate(25.000000) translate(-344.952244, -236.085756) " points="296.763701 217.673206 412.632781 220.92248 392.057898 254.498307 277.271706 250.165942"></polygon>
                                <polygon id="Rectangle-4" fill="#CEE8E3" mask="url(#mask-19)" transform="translate(266.902127, 387.483427) rotate(27.000000) translate(-266.902127, -387.483427) " points="198.758156 368.035416 313.625592 368.358412 335.046098 406.601236 218.659048 406.931438"></polygon>
                                <polygon id="Rectangle" fill="#E6F8F5" mask="url(#mask-19)" transform="translate(282.304631, 355.059999) rotate(25.000000) translate(-282.304631, -355.059999) " points="234.116088 336.647449 349.985168 339.896723 329.410285 373.47255 214.624094 369.140185"></polygon>
                            </g>
                            <g id="Group-3" transform="translate(582.000000, 0.000000)">
                                <mask id="mask-21" fill="white">
                                    <use xlink:href="#path-20"></use>
                                </mask>
                                <g id="Rectangle-6"></g>
                                <polygon id="Rectangle-4" fill="#CEE8E3" mask="url(#mask-21)" transform="translate(104.014435, 325.180804) rotate(27.000000) translate(-104.014435, -325.180804) " points="37.3371055 308.145396 152.204541 308.468392 170.691765 341.418976 54.779892 342.216211"></polygon>
                                <polygon id="Rectangle" fill="#E6F8F5" mask="url(#mask-21)" transform="translate(119.628437, 295.572878) rotate(25.000000) translate(-119.628437, -295.572878) " points="71.4398947 277.160328 187.308975 280.409601 166.734091 313.985428 51.9478999 309.653064"></polygon>
                                <polygon id="Rectangle-4" fill="#CEE8E3" mask="url(#mask-21)" transform="translate(72.902127, 387.483427) rotate(27.000000) translate(-72.902127, -387.483427) " points="4.75815596 368.035416 119.625592 368.358412 141.046098 406.601236 24.6590482 406.931438"></polygon>
                                <polygon id="Rectangle" fill="#E6F8F5" mask="url(#mask-21)" transform="translate(88.304631, 355.059999) rotate(25.000000) translate(-88.304631, -355.059999) " points="40.1160883 336.647449 155.985168 339.896723 135.410285 373.47255 20.6240935 369.140185"></polygon>
                            </g>
                        </g>
                    </g>
                </g>
            </g>
            <g id="Group-5-Copy" transform="translate(531.000000, 26.500000) scale(-1, -1) translate(-531.000000, -26.500000) translate(-328.000000, -114.000000)">
                <g id="Group-4" transform="translate(1246.000000, 140.500000) rotate(-180.000000) translate(-1246.000000, -140.500000) translate(774.000000, 0.000000)">
                    <mask id="mask-23" fill="white">
                        <use xlink:href="#path-22"></use>
                    </mask>
                    <g id="Rectangle-9"></g>
                    <g id="stairs" mask="url(#mask-23)">
                        <g transform="translate(-23.000000, -155.000000)">
                            <g id="Group">
                                <mask id="mask-25" fill="white">
                                    <use xlink:href="#path-24"></use>
                                </mask>
                                <g id="Rectangle-6"></g>
                                <path d="M346.400905,-76.84349 L430.866216,-76.84349 L430.866216,256 L124.971599,435.458645 C124.971599,435.458645 111.597618,362.387192 120.077188,343.395893 C128.556759,324.404595 346.400905,-76.84349 346.400905,-76.84349 Z" id="Rectangle-5" fill="#8EB8B1" mask="url(#mask-25)"></path>
                            </g>
                            <g id="Group-2" transform="translate(195.000000, 0.000000)">
                                <mask id="mask-27" fill="white">
                                    <use xlink:href="#path-26"></use>
                                </mask>
                                <g id="Rectangle-6"></g>
                                <path d="M346.400905,-76.84349 L430.866216,-76.84349 L430.866216,256 L124.971599,435.458645 C124.971599,435.458645 111.597618,362.387192 120.077188,343.395893 C128.556759,324.404595 346.400905,-76.84349 346.400905,-76.84349 Z" id="Rectangle-5" fill="#8EB8B1" mask="url(#mask-27)"></path>
                                <polygon id="Rectangle-4" fill="#CEE8E3" mask="url(#mask-27)" transform="translate(104.014435, 325.180804) rotate(27.000000) translate(-104.014435, -325.180804) " points="37.3371055 308.145396 152.204541 308.468392 170.691765 341.418976 54.779892 342.216211"></polygon>
                                <polygon id="Rectangle" fill="#E6F8F5" mask="url(#mask-27)" transform="translate(119.628437, 295.572878) rotate(25.000000) translate(-119.628437, -295.572878) " points="71.4398947 277.160328 187.308975 280.409601 166.734091 313.985428 51.9478999 309.653064"></polygon>
                                <polygon id="Rectangle-4" fill="#CEE8E3" mask="url(#mask-27)" transform="translate(135.338241, 265.693682) rotate(27.000000) translate(-135.338241, -265.693682) " points="68.6609119 248.658275 183.528348 248.98127 202.015571 281.931855 86.1036984 282.72909"></polygon>
                                <polygon id="Rectangle" fill="#E6F8F5" mask="url(#mask-27)" transform="translate(150.952244, 236.085756) rotate(25.000000) translate(-150.952244, -236.085756) " points="102.763701 217.673206 218.632781 220.92248 198.057898 254.498307 83.2717064 250.165942"></polygon>
                                <polygon id="Rectangle" fill="#E6F8F5" mask="url(#mask-27)" transform="translate(88.304631, 355.059999) rotate(25.000000) translate(-88.304631, -355.059999) " points="40.1160883 336.647449 155.985168 339.896723 135.410285 373.47255 20.6240935 369.140185"></polygon>
                                <mask id="mask-29" fill="white">
                                    <use xlink:href="#path-28"></use>
                                </mask>
                                <g id="Rectangle-6"></g>
                                <path d="M540.400905,-76.84349 L624.866216,-76.84349 L624.866216,256 L318.971599,435.458645 C318.971599,435.458645 305.597618,362.387192 314.077188,343.395893 C322.556759,324.404595 540.400905,-76.84349 540.400905,-76.84349 Z" id="Rectangle-5" fill="#8EB8B1" mask="url(#mask-29)"></path>
                                <polygon id="Rectangle-4" fill="#CEE8E3" mask="url(#mask-29)" transform="translate(298.014435, 325.180804) rotate(27.000000) translate(-298.014435, -325.180804) " points="231.337105 308.145396 346.204541 308.468392 364.691765 341.418976 248.779892 342.216211"></polygon>
                                <polygon id="Rectangle" fill="#E6F8F5" mask="url(#mask-29)" transform="translate(313.628437, 295.572878) rotate(25.000000) translate(-313.628437, -295.572878) " points="265.439895 277.160328 381.308975 280.409601 360.734091 313.985428 245.9479 309.653064"></polygon>
                                <polygon id="Rectangle-4" fill="#CEE8E3" mask="url(#mask-29)" transform="translate(329.338241, 265.693682) rotate(27.000000) translate(-329.338241, -265.693682) " points="262.660912 248.658275 377.528348 248.98127 396.015571 281.931855 280.103698 282.72909"></polygon>
                                <polygon id="Rectangle" fill="#E6F8F5" mask="url(#mask-29)" transform="translate(344.952244, 236.085756) rotate(25.000000) translate(-344.952244, -236.085756) " points="296.763701 217.673206 412.632781 220.92248 392.057898 254.498307 277.271706 250.165942"></polygon>
                                <polygon id="Rectangle-4" fill="#CEE8E3" mask="url(#mask-29)" transform="translate(266.902127, 387.483427) rotate(27.000000) translate(-266.902127, -387.483427) " points="198.758156 368.035416 313.625592 368.358412 335.046098 406.601236 218.659048 406.931438"></polygon>
                                <polygon id="Rectangle" fill="#E6F8F5" mask="url(#mask-29)" transform="translate(282.304631, 355.059999) rotate(25.000000) translate(-282.304631, -355.059999) " points="234.116088 336.647449 349.985168 339.896723 329.410285 373.47255 214.624094 369.140185"></polygon>
                            </g>
                            <g id="Group-3" transform="translate(582.000000, 0.000000)">
                                <mask id="mask-31" fill="white">
                                    <use xlink:href="#path-30"></use>
                                </mask>
                                <g id="Rectangle-6"></g>
                                <path d="M346.400905,-76.84349 L430.866216,-76.84349 L430.866216,256 L124.971599,435.458645 C124.971599,435.458645 111.597618,362.387192 120.077188,343.395893 C128.556759,324.404595 346.400905,-76.84349 346.400905,-76.84349 Z" id="Rectangle-5" fill="#8EB8B1" mask="url(#mask-31)"></path>
                                <polygon id="Rectangle-4" fill="#CEE8E3" mask="url(#mask-31)" transform="translate(104.014435, 325.180804) rotate(27.000000) translate(-104.014435, -325.180804) " points="37.3371055 308.145396 152.204541 308.468392 170.691765 341.418976 54.779892 342.216211"></polygon>
                                <polygon id="Rectangle" fill="#E6F8F5" mask="url(#mask-31)" transform="translate(119.628437, 295.572878) rotate(25.000000) translate(-119.628437, -295.572878) " points="71.4398947 277.160328 187.308975 280.409601 166.734091 313.985428 51.9478999 309.653064"></polygon>
                                <polygon id="Rectangle-4" fill="#CEE8E3" mask="url(#mask-31)" transform="translate(135.338241, 265.693682) rotate(27.000000) translate(-135.338241, -265.693682) " points="68.6609119 248.658275 183.528348 248.98127 202.015571 281.931855 86.1036984 282.72909"></polygon>
                                <polygon id="Rectangle" fill="#E6F8F5" mask="url(#mask-31)" transform="translate(150.952244, 236.085756) rotate(25.000000) translate(-150.952244, -236.085756) " points="102.763701 217.673206 218.632781 220.92248 198.057898 254.498307 83.2717064 250.165942"></polygon>
                                <polygon id="Rectangle-4" fill="#CEE8E3" mask="url(#mask-31)" transform="translate(72.902127, 387.483427) rotate(27.000000) translate(-72.902127, -387.483427) " points="4.75815596 368.035416 119.625592 368.358412 141.046098 406.601236 24.6590482 406.931438"></polygon>
                                <polygon id="Rectangle" fill="#E6F8F5" mask="url(#mask-31)" transform="translate(88.304631, 355.059999) rotate(25.000000) translate(-88.304631, -355.059999) " points="40.1160883 336.647449 155.985168 339.896723 135.410285 373.47255 20.6240935 369.140185"></polygon>
                            </g>
                        </g>
                    </g>
                </g>
                <g id="Group-4-Copy-2" transform="translate(472.000000, 140.500000) rotate(-180.000000) translate(-472.000000, -140.500000) ">
                    <mask id="mask-33" fill="white">
                        <use xlink:href="#path-32"></use>
                    </mask>
                    <g id="Rectangle-9"></g>
                    <g id="stairs" mask="url(#mask-33)">
                        <g transform="translate(-23.000000, -155.000000)">
                            <g id="Group">
                                <mask id="mask-35" fill="white">
                                    <use xlink:href="#path-34"></use>
                                </mask>
                                <g id="Rectangle-6"></g>
                                <path d="M346.400905,-76.84349 L430.866216,-76.84349 L430.866216,256 L124.971599,435.458645 C124.971599,435.458645 111.597618,362.387192 120.077188,343.395893 C128.556759,324.404595 346.400905,-76.84349 346.400905,-76.84349 Z" id="Rectangle-5" fill="#8EB8B1" mask="url(#mask-35)"></path>
                                <polygon id="Rectangle-4" fill="#CEE7E3" mask="url(#mask-35)" transform="translate(104.014435, 325.180804) rotate(27.000000) translate(-104.014435, -325.180804) " points="37.3371055 308.145396 152.204541 308.468392 170.691765 341.418976 54.779892 342.216211"></polygon>
                                <polygon id="Rectangle" fill="#E6F8F5" mask="url(#mask-35)" transform="translate(119.628437, 295.572878) rotate(25.000000) translate(-119.628437, -295.572878) " points="71.4398947 277.160328 187.308975 280.409601 166.734091 313.985428 51.9478999 309.653064"></polygon>
                                <polygon id="Rectangle-4" fill="#CEE8E3" mask="url(#mask-35)" transform="translate(135.338241, 265.693682) rotate(27.000000) translate(-135.338241, -265.693682) " points="68.6609119 248.658275 183.528348 248.98127 202.015571 281.931855 86.1036984 282.72909"></polygon>
                                <polygon id="Rectangle" fill="#E6F8F5" mask="url(#mask-35)" transform="translate(150.952244, 236.085756) rotate(25.000000) translate(-150.952244, -236.085756) " points="102.763701 217.673206 218.632781 220.92248 198.057898 254.498307 83.2717064 250.165942"></polygon>
                                <polygon id="Rectangle-4" fill="#CEE7E3" mask="url(#mask-35)" transform="translate(72.902127, 387.483427) rotate(27.000000) translate(-72.902127, -387.483427) " points="4.75815596 368.035416 119.625592 368.358412 141.046098 406.601236 24.6590482 406.931438"></polygon>
                                <polygon id="Rectangle" fill="#E6F8F5" mask="url(#mask-35)" transform="translate(88.304631, 355.059999) rotate(25.000000) translate(-88.304631, -355.059999) " points="40.1160883 336.647449 155.985168 339.896723 135.410285 373.47255 20.6240935 369.140185"></polygon>
                            </g>
                            <g id="Group-2" transform="translate(195.000000, 0.000000)">
                                <mask id="mask-37" fill="white">
                                    <use xlink:href="#path-36"></use>
                                </mask>
                                <g id="Rectangle-6"></g>
                                <path d="M346.400905,-76.84349 L430.866216,-76.84349 L430.866216,256 L124.971599,435.458645 C124.971599,435.458645 111.597618,362.387192 120.077188,343.395893 C128.556759,324.404595 346.400905,-76.84349 346.400905,-76.84349 Z" id="Rectangle-5" fill="#8EB8B1" mask="url(#mask-37)"></path>
                                <polygon id="Rectangle-4" fill="#CEE8E3" mask="url(#mask-37)" transform="translate(104.014435, 325.180804) rotate(27.000000) translate(-104.014435, -325.180804) " points="37.3371055 308.145396 152.204541 308.468392 170.691765 341.418976 54.779892 342.216211"></polygon>
                                <polygon id="Rectangle" fill="#E6F8F5" mask="url(#mask-37)" transform="translate(119.628437, 295.572878) rotate(25.000000) translate(-119.628437, -295.572878) " points="71.4398947 277.160328 187.308975 280.409601 166.734091 313.985428 51.9478999 309.653064"></polygon>
                                <polygon id="Rectangle-4" fill="#CEE8E3" mask="url(#mask-37)" transform="translate(135.338241, 265.693682) rotate(27.000000) translate(-135.338241, -265.693682) " points="68.6609119 248.658275 183.528348 248.98127 202.015571 281.931855 86.1036984 282.72909"></polygon>
                                <polygon id="Rectangle" fill="#E6F8F5" mask="url(#mask-37)" transform="translate(150.952244, 236.085756) rotate(25.000000) translate(-150.952244, -236.085756) " points="102.763701 217.673206 218.632781 220.92248 198.057898 254.498307 83.2717064 250.165942"></polygon>
                                <polygon id="Rectangle-4" fill="#CEE8E3" mask="url(#mask-37)" transform="translate(72.902127, 387.483427) rotate(27.000000) translate(-72.902127, -387.483427) " points="4.75815596 368.035416 119.625592 368.358412 141.046098 406.601236 24.6590482 406.931438"></polygon>
                                <polygon id="Rectangle" fill="#E6F8F5" mask="url(#mask-37)" transform="translate(88.304631, 355.059999) rotate(25.000000) translate(-88.304631, -355.059999) " points="40.1160883 336.647449 155.985168 339.896723 135.410285 373.47255 20.6240935 369.140185"></polygon>
                                <mask id="mask-39" fill="white">
                                    <use xlink:href="#path-38"></use>
                                </mask>
                                <g id="Rectangle-6"></g>
                                <path d="M540.400905,-76.84349 L624.866216,-76.84349 L624.866216,256 L318.971599,435.458645 C318.971599,435.458645 305.597618,362.387192 314.077188,343.395893 C322.556759,324.404595 540.400905,-76.84349 540.400905,-76.84349 Z" id="Rectangle-5" fill="#8EB8B1" mask="url(#mask-39)"></path>
                                <polygon id="Rectangle-4" fill="#CEE8E3" mask="url(#mask-39)" transform="translate(298.014435, 325.180804) rotate(27.000000) translate(-298.014435, -325.180804) " points="231.337105 308.145396 346.204541 308.468392 364.691765 341.418976 248.779892 342.216211"></polygon>
                                <polygon id="Rectangle" fill="#E6F8F5" mask="url(#mask-39)" transform="translate(313.628437, 295.572878) rotate(25.000000) translate(-313.628437, -295.572878) " points="265.439895 277.160328 381.308975 280.409601 360.734091 313.985428 245.9479 309.653064"></polygon>
                                <polygon id="Rectangle-4" fill="#CEE8E3" mask="url(#mask-39)" transform="translate(329.338241, 265.693682) rotate(27.000000) translate(-329.338241, -265.693682) " points="262.660912 248.658275 377.528348 248.98127 396.015571 281.931855 280.103698 282.72909"></polygon>
                                <polygon id="Rectangle" fill="#E6F8F5" mask="url(#mask-39)" transform="translate(344.952244, 236.085756) rotate(25.000000) translate(-344.952244, -236.085756) " points="296.763701 217.673206 412.632781 220.92248 392.057898 254.498307 277.271706 250.165942"></polygon>
                                <polygon id="Rectangle-4" fill="#CEE8E3" mask="url(#mask-39)" transform="translate(266.902127, 387.483427) rotate(27.000000) translate(-266.902127, -387.483427) " points="198.758156 368.035416 313.625592 368.358412 335.046098 406.601236 218.659048 406.931438"></polygon>
                                <polygon id="Rectangle" fill="#E6F8F5" mask="url(#mask-39)" transform="translate(282.304631, 355.059999) rotate(25.000000) translate(-282.304631, -355.059999) " points="234.116088 336.647449 349.985168 339.896723 329.410285 373.47255 214.624094 369.140185"></polygon>
                            </g>
                            <g id="Group-3" transform="translate(582.000000, 0.000000)">
                                <mask id="mask-41" fill="white">
                                    <use xlink:href="#path-40"></use>
                                </mask>
                                <g id="Rectangle-6"></g>
                                <path d="M346.400905,-76.84349 L430.866216,-76.84349 L430.866216,256 L124.971599,435.458645 C124.971599,435.458645 111.597618,362.387192 120.077188,343.395893 C128.556759,324.404595 346.400905,-76.84349 346.400905,-76.84349 Z" id="Rectangle-5" fill="#8EB8B1" mask="url(#mask-41)"></path>
                                <polygon id="Rectangle-4" fill="#CEE8E3" mask="url(#mask-41)" transform="translate(104.014435, 325.180804) rotate(27.000000) translate(-104.014435, -325.180804) " points="37.3371055 308.145396 152.204541 308.468392 170.691765 341.418976 54.779892 342.216211"></polygon>
                                <polygon id="Rectangle" fill="#E6F8F5" mask="url(#mask-41)" transform="translate(119.628437, 295.572878) rotate(25.000000) translate(-119.628437, -295.572878) " points="71.4398947 277.160328 187.308975 280.409601 166.734091 313.985428 51.9478999 309.653064"></polygon>
                                <polygon id="Rectangle-4" fill="#CEE8E3" mask="url(#mask-41)" transform="translate(135.338241, 265.693682) rotate(27.000000) translate(-135.338241, -265.693682) " points="68.6609119 248.658275 183.528348 248.98127 202.015571 281.931855 86.1036984 282.72909"></polygon>
                                <polygon id="Rectangle" fill="#E6F8F5" mask="url(#mask-41)" transform="translate(150.952244, 236.085756) rotate(25.000000) translate(-150.952244, -236.085756) " points="102.763701 217.673206 218.632781 220.92248 198.057898 254.498307 83.2717064 250.165942"></polygon>
                                <polygon id="Rectangle-4" fill="#CEE8E3" mask="url(#mask-41)" transform="translate(72.902127, 387.483427) rotate(27.000000) translate(-72.902127, -387.483427) " points="4.75815596 368.035416 119.625592 368.358412 141.046098 406.601236 24.6590482 406.931438"></polygon>
                                <polygon id="Rectangle" fill="#E6F8F5" mask="url(#mask-41)" transform="translate(88.304631, 355.059999) rotate(25.000000) translate(-88.304631, -355.059999) " points="40.1160883 336.647449 155.985168 339.896723 135.410285 373.47255 20.6240935 369.140185"></polygon>
                            </g>
                        </g>
                    </g>
                </g>
            </g>
            <text id="Another-Year" font-family="HKGrotesk-Bold, HK Grotesk" font-size="82" font-weight="bold" letter-spacing="0.0700000003" fill="#FFFFFF">
                <tspan x="356" y="341">Another Year</tspan>
            </text>
        </g>
    </g>
</svg>