<?xml version="1.0" encoding="UTF-8"?>
<svg width="387px" height="281px" viewBox="0 0 387 281" version="1.1" xmlns="http://www.w3.org/2000/svg" xmlns:xlink="http://www.w3.org/1999/xlink">
    <!-- Generator: Sketch 43.1 (39012) - http://www.bohemiancoding.com/sketch -->
    <title>Artboard 3</title>
    <desc>Created with Sketch.</desc>
    <defs>
        <rect id="path-1" x="0" y="0" width="387" height="281"></rect>
        <rect id="path-3" x="0" y="0" width="387" height="281"></rect>
        <rect id="path-5" x="0" y="0" width="615" height="281"></rect>
        <polygon id="path-7" points="0 0 394 0 394 435 107.921739 435 0 435 0 384.869888"></polygon>
        <polygon id="path-9" points="194 0 588 0 588 435 301.921739 435 194 435 194 384.869888"></polygon>
        <polygon id="path-11" points="0 0 394 0 394 435 107.921739 435 0 435 0 384.869888"></polygon>
        <rect id="path-13" x="0" y="0" width="387" height="281"></rect>
        <rect id="path-15" x="0" y="0" width="615" height="281"></rect>
        <polygon id="path-17" points="0 0 394 0 394 435 107.921739 435 0 435 0 384.869888"></polygon>
        <polygon id="path-19" points="0 0 394 0 394 435 107.921739 435 0 435 0 384.869888"></polygon>
        <polygon id="path-21" points="194 0 588 0 588 435 301.921739 435 194 435 194 384.869888"></polygon>
        <rect id="path-23" x="0" y="0" width="387" height="281"></rect>
        <rect id="path-25" x="0" y="0" width="387" height="281"></rect>
        <rect id="path-27" x="0" y="0" width="615" height="281"></rect>
        <polygon id="path-29" points="0 0 394 0 394 435 107.921739 435 0 435 0 384.869888"></polygon>
        <polygon id="path-31" points="0 0 394 0 394 435 107.921739 435 0 435 0 384.869888"></polygon>
        <polygon id="path-33" points="194 0 588 0 588 435 301.921739 435 194 435 194 384.869888"></polygon>
        <rect id="path-35" x="0" y="0" width="387" height="281"></rect>
        <rect id="path-37" x="0" y="0" width="387" height="281"></rect>
        <rect id="path-39" x="0" y="0" width="615" height="281"></rect>
        <polygon id="path-41" points="0 0 394 0 394 435 107.921739 435 0 435 0 384.869888"></polygon>
        <polygon id="path-43" points="194 0 588 0 588 435 301.921739 435 194 435 194 384.869888"></polygon>
        <polygon id="path-45" points="0 0 394 0 394 435 107.921739 435 0 435 0 384.869888"></polygon>
        <rect id="path-47" x="0" y="0" width="387" height="281"></rect>
        <rect id="path-49" x="0" y="0" width="615" height="281"></rect>
        <polygon id="path-51" points="0 0 394 0 394 435 107.921739 435 0 435 0 384.869888"></polygon>
        <polygon id="path-53" points="0 0 394 0 394 435 107.921739 435 0 435 0 384.869888"></polygon>
        <polygon id="path-55" points="194 0 588 0 588 435 301.921739 435 194 435 194 384.869888"></polygon>
    </defs>
    <g id="Page-1" stroke="none" stroke-width="1" fill="none" fill-rule="evenodd">
        <g id="Artboard-3">
            <g id="Group-6" transform="translate(126.000000, 44.000000)">
                <mask id="mask-2" fill="white">
                    <use xlink:href="#path-1"></use>
                </mask>
                <g id="Rectangle-11"></g>
                <g id="Group-5" mask="url(#mask-2)">
                    <g transform="translate(244.500000, 182.500000) rotate(-180.000000) translate(-244.500000, -182.500000) translate(51.000000, 42.000000)">
                        <mask id="mask-4" fill="white">
                            <use xlink:href="#path-3"></use>
                        </mask>
                        <g id="Rectangle-10" stroke="none" fill="none"></g>
                        <g id="Group-4" stroke="none" stroke-width="1" fill="none" fill-rule="evenodd" mask="url(#mask-4)">
                            <mask id="mask-6" fill="white">
                                <use xlink:href="#path-5"></use>
                            </mask>
                            <g id="Rectangle-9"></g>
                            <g id="stairs" mask="url(#mask-6)">
                                <g transform="translate(-352.000000, -155.000000)">
                                    <g id="Group-2" transform="translate(195.000000, 0.000000)">
                                        <mask id="mask-8" fill="white">
                                            <use xlink:href="#path-7"></use>
                                        </mask>
                                        <g id="Rectangle-6"></g>
                                        <path d="M346.400905,-76.84349 L430.866216,-76.84349 L430.866216,256 L124.971599,435.458645 C124.971599,435.458645 111.597618,362.387192 120.077188,343.395893 C128.556759,324.404595 346.400905,-76.84349 346.400905,-76.84349 Z" id="Rectangle-5" fill="#8EB8B1" mask="url(#mask-8)"></path>
                                        <mask id="mask-10" fill="white">
                                            <use xlink:href="#path-9"></use>
                                        </mask>
                                        <g id="Rectangle-6"></g>
                                        <path d="M540.400905,-76.84349 L624.866216,-76.84349 L624.866216,256 L318.971599,435.458645 C318.971599,435.458645 305.597618,362.387192 314.077188,343.395893 C322.556759,324.404595 540.400905,-76.84349 540.400905,-76.84349 Z" id="Rectangle-5" fill="#8EB8B1" mask="url(#mask-10)"></path>
                                        <polygon id="Rectangle-4" fill="#CEE8E3" mask="url(#mask-10)" transform="translate(298.014435, 325.180804) rotate(27.000000) translate(-298.014435, -325.180804) " points="231.337105 308.145396 346.204541 308.468392 364.691765 341.418976 248.779892 342.216211"></polygon>
                                        <polygon id="Rectangle" fill="#E6F8F5" mask="url(#mask-10)" transform="translate(313.628437, 295.572878) rotate(25.000000) translate(-313.628437, -295.572878) " points="265.439895 277.160328 381.308975 280.409601 360.734091 313.985428 245.9479 309.653064"></polygon>
                                        <polygon id="Rectangle-4" fill="#CEE8E3" mask="url(#mask-10)" transform="translate(329.338241, 265.693682) rotate(27.000000) translate(-329.338241, -265.693682) " points="262.660912 248.658275 377.528348 248.98127 396.015571 281.931855 280.103698 282.72909"></polygon>
                                        <polygon id="Rectangle" fill="#E6F8F5" mask="url(#mask-10)" transform="translate(344.952244, 236.085756) rotate(25.000000) translate(-344.952244, -236.085756) " points="296.763701 217.673206 412.632781 220.92248 392.057898 254.498307 277.271706 250.165942"></polygon>
                                        <polygon id="Rectangle-4" fill="#CEE8E3" mask="url(#mask-10)" transform="translate(266.902127, 387.483427) rotate(27.000000) translate(-266.902127, -387.483427) " points="198.758156 368.035416 313.625592 368.358412 335.046098 406.601236 218.659048 406.931438"></polygon>
                                        <polygon id="Rectangle" fill="#E6F8F5" mask="url(#mask-10)" transform="translate(282.304631, 355.059999) rotate(25.000000) translate(-282.304631, -355.059999) " points="234.116088 336.647449 349.985168 339.896723 329.410285 373.47255 214.624094 369.140185"></polygon>
                                        <polygon id="Rectangle-4-Copy" fill="#CEE8E3" mask="url(#mask-10)" transform="translate(360.662048, 206.206561) rotate(27.000000) translate(-360.662048, -206.206561) " points="293.984718 189.171153 408.852154 189.494149 427.339377 222.444733 311.427505 223.241968"></polygon>
                                    </g>
                                    <g id="Group-3" transform="translate(582.000000, 0.000000)">
                                        <mask id="mask-12" fill="white">
                                            <use xlink:href="#path-11"></use>
                                        </mask>
                                        <g id="Rectangle-6"></g>
                                        <path d="M346.400905,-76.84349 L430.866216,-76.84349 L430.866216,256 L124.971599,435.458645 C124.971599,435.458645 111.597618,362.387192 120.077188,343.395893 C128.556759,324.404595 346.400905,-76.84349 346.400905,-76.84349 Z" id="Rectangle-5" fill="#8EB8B1" mask="url(#mask-12)"></path>
                                        <polygon id="Rectangle-4" fill="#CEE8E3" mask="url(#mask-12)" transform="translate(104.014435, 325.180804) rotate(27.000000) translate(-104.014435, -325.180804) " points="37.3371055 308.145396 152.204541 308.468392 170.691765 341.418976 54.779892 342.216211"></polygon>
                                        <polygon id="Rectangle" fill="#E6F8F5" mask="url(#mask-12)" transform="translate(119.628437, 295.572878) rotate(25.000000) translate(-119.628437, -295.572878) " points="71.4398947 277.160328 187.308975 280.409601 166.734091 313.985428 51.9478999 309.653064"></polygon>
                                        <polygon id="Rectangle-4" fill="#CEE8E3" mask="url(#mask-12)" transform="translate(135.338241, 265.693682) rotate(27.000000) translate(-135.338241, -265.693682) " points="68.6609119 248.658275 183.528348 248.98127 202.015571 281.931855 86.1036984 282.72909"></polygon>
                                        <polygon id="Rectangle" fill="#E6F8F5" mask="url(#mask-12)" transform="translate(150.952244, 236.085756) rotate(25.000000) translate(-150.952244, -236.085756) " points="102.763701 217.673206 218.632781 220.92248 198.057898 254.498307 83.2717064 250.165942"></polygon>
                                        <polygon id="Rectangle-4" fill="#CEE8E3" mask="url(#mask-12)" transform="translate(72.902127, 387.483427) rotate(27.000000) translate(-72.902127, -387.483427) " points="4.75815596 368.035416 119.625592 368.358412 141.046098 406.601236 24.6590482 406.931438"></polygon>
                                        <polygon id="Rectangle" fill="#E6F8F5" mask="url(#mask-12)" transform="translate(88.304631, 355.059999) rotate(25.000000) translate(-88.304631, -355.059999) " points="40.1160883 336.647449 155.985168 339.896723 135.410285 373.47255 20.6240935 369.140185"></polygon>
                                        <polygon id="Rectangle-4-Copy" fill="#CEE8E3" mask="url(#mask-12)" transform="translate(166.662048, 206.206561) rotate(27.000000) translate(-166.662048, -206.206561) " points="99.9847183 189.171153 214.852154 189.494149 233.339377 222.444733 117.427505 223.241968"></polygon>
                                    </g>
                                </g>
                            </g>
                        </g>
                    </g>
                </g>
                <g id="Group-5-Copy" mask="url(#mask-2)">
                    <g transform="translate(-141.500000, 182.500000) rotate(-180.000000) translate(141.500000, -182.500000) translate(-335.000000, 42.000000)">
                        <mask id="mask-14" fill="white">
                            <use xlink:href="#path-13"></use>
                        </mask>
                        <g id="Rectangle-10" stroke="none" fill="none"></g>
                        <g id="Group-4" stroke="none" stroke-width="1" fill="none" fill-rule="evenodd" mask="url(#mask-14)">
                            <mask id="mask-16" fill="white">
                                <use xlink:href="#path-15"></use>
                            </mask>
                            <g id="Rectangle-9"></g>
                            <g id="stairs" mask="url(#mask-16)">
                                <g transform="translate(-352.000000, -155.000000)">
                                    <g id="Group">
                                        <mask id="mask-18" fill="white">
                                            <use xlink:href="#path-17"></use>
                                        </mask>
                                        <g id="Rectangle-6"></g>
                                        <path d="M346.400905,-76.84349 L430.866216,-76.84349 L430.866216,256 L124.971599,435.458645 C124.971599,435.458645 111.597618,362.387192 120.077188,343.395893 C128.556759,324.404595 346.400905,-76.84349 346.400905,-76.84349 Z" id="Rectangle-5" fill="#8EB8B1" mask="url(#mask-18)"></path>
                                        <polygon id="Rectangle-4" fill="#CEE7E3" mask="url(#mask-18)" transform="translate(104.014435, 325.180804) rotate(27.000000) translate(-104.014435, -325.180804) " points="37.3371055 308.145396 152.204541 308.468392 170.691765 341.418976 54.779892 342.216211"></polygon>
                                        <polygon id="Rectangle" fill="#E6F8F5" mask="url(#mask-18)" transform="translate(119.628437, 295.572878) rotate(25.000000) translate(-119.628437, -295.572878) " points="71.4398947 277.160328 187.308975 280.409601 166.734091 313.985428 51.9478999 309.653064"></polygon>
                                        <polygon id="Rectangle-4" fill="#CEE8E3" mask="url(#mask-18)" transform="translate(135.338241, 265.693682) rotate(27.000000) translate(-135.338241, -265.693682) " points="68.6609119 248.658275 183.528348 248.98127 202.015571 281.931855 86.1036984 282.72909"></polygon>
                                        <polygon id="Rectangle" fill="#E6F8F5" mask="url(#mask-18)" transform="translate(150.952244, 236.085756) rotate(25.000000) translate(-150.952244, -236.085756) " points="102.763701 217.673206 218.632781 220.92248 198.057898 254.498307 83.2717064 250.165942"></polygon>
                                        <polygon id="Rectangle" fill="#E6F8F5" mask="url(#mask-18)" transform="translate(88.304631, 355.059999) rotate(25.000000) translate(-88.304631, -355.059999) " points="40.1160883 336.647449 155.985168 339.896723 135.410285 373.47255 20.6240935 369.140185"></polygon>
                                        <polygon id="Rectangle-4-Copy" fill="#CEE8E3" mask="url(#mask-18)" transform="translate(166.662048, 206.206561) rotate(27.000000) translate(-166.662048, -206.206561) " points="99.9847183 189.171153 214.852154 189.494149 233.339377 222.444733 117.427505 223.241968"></polygon>
                                    </g>
                                    <g id="Group-2" transform="translate(195.000000, 0.000000)">
                                        <mask id="mask-20" fill="white">
                                            <use xlink:href="#path-19"></use>
                                        </mask>
                                        <g id="Rectangle-6"></g>
                                        <path d="M346.400905,-76.84349 L430.866216,-76.84349 L430.866216,256 L124.971599,435.458645 C124.971599,435.458645 111.597618,362.387192 120.077188,343.395893 C128.556759,324.404595 346.400905,-76.84349 346.400905,-76.84349 Z" id="Rectangle-5" fill="#8EB8B1" mask="url(#mask-20)"></path>
                                        <polygon id="Rectangle-4" fill="#CEE8E3" mask="url(#mask-20)" transform="translate(104.014435, 325.180804) rotate(27.000000) translate(-104.014435, -325.180804) " points="37.3371055 308.145396 152.204541 308.468392 170.691765 341.418976 54.779892 342.216211"></polygon>
                                        <polygon id="Rectangle" fill="#E6F8F5" mask="url(#mask-20)" transform="translate(119.628437, 295.572878) rotate(25.000000) translate(-119.628437, -295.572878) " points="71.4398947 277.160328 187.308975 280.409601 166.734091 313.985428 51.9478999 309.653064"></polygon>
                                        <polygon id="Rectangle-4" fill="#CEE8E3" mask="url(#mask-20)" transform="translate(135.338241, 265.693682) rotate(27.000000) translate(-135.338241, -265.693682) " points="68.6609119 248.658275 183.528348 248.98127 202.015571 281.931855 86.1036984 282.72909"></polygon>
                                        <polygon id="Rectangle" fill="#E6F8F5" mask="url(#mask-20)" transform="translate(150.952244, 236.085756) rotate(25.000000) translate(-150.952244, -236.085756) " points="102.763701 217.673206 218.632781 220.92248 198.057898 254.498307 83.2717064 250.165942"></polygon>
                                        <polygon id="Rectangle-4" fill="#CEE8E3" mask="url(#mask-20)" transform="translate(72.902127, 387.483427) rotate(27.000000) translate(-72.902127, -387.483427) " points="4.75815596 368.035416 119.625592 368.358412 141.046098 406.601236 24.6590482 406.931438"></polygon>
                                        <polygon id="Rectangle" fill="#E6F8F5" mask="url(#mask-20)" transform="translate(88.304631, 355.059999) rotate(25.000000) translate(-88.304631, -355.059999) " points="40.1160883 336.647449 155.985168 339.896723 135.410285 373.47255 20.6240935 369.140185"></polygon>
                                        <polygon id="Rectangle-4-Copy" fill="#CEE8E3" mask="url(#mask-20)" transform="translate(166.662048, 206.206561) rotate(27.000000) translate(-166.662048, -206.206561) " points="99.9847183 189.171153 214.852154 189.494149 233.339377 222.444733 117.427505 223.241968"></polygon>
                                        <mask id="mask-22" fill="white">
                                            <use xlink:href="#path-21"></use>
                                        </mask>
                                        <g id="Rectangle-6"></g>
                                        <path d="M540.400905,-76.84349 L624.866216,-76.84349 L624.866216,256 L318.971599,435.458645 C318.971599,435.458645 305.597618,362.387192 314.077188,343.395893 C322.556759,324.404595 540.400905,-76.84349 540.400905,-76.84349 Z" id="Rectangle-5" fill="#8EB8B1" mask="url(#mask-22)"></path>
                                        <polygon id="Rectangle-4" fill="#CEE8E3" mask="url(#mask-22)" transform="translate(298.014435, 325.180804) rotate(27.000000) translate(-298.014435, -325.180804) " points="231.337105 308.145396 346.204541 308.468392 364.691765 341.418976 248.779892 342.216211"></polygon>
                                        <polygon id="Rectangle" fill="#E6F8F5" mask="url(#mask-22)" transform="translate(313.628437, 295.572878) rotate(25.000000) translate(-313.628437, -295.572878) " points="265.439895 277.160328 381.308975 280.409601 360.734091 313.985428 245.9479 309.653064"></polygon>
                                        <polygon id="Rectangle-4" fill="#CEE8E3" mask="url(#mask-22)" transform="translate(329.338241, 265.693682) rotate(27.000000) translate(-329.338241, -265.693682) " points="262.660912 248.658275 377.528348 248.98127 396.015571 281.931855 280.103698 282.72909"></polygon>
                                        <polygon id="Rectangle" fill="#E6F8F5" mask="url(#mask-22)" transform="translate(344.952244, 236.085756) rotate(25.000000) translate(-344.952244, -236.085756) " points="296.763701 217.673206 412.632781 220.92248 392.057898 254.498307 277.271706 250.165942"></polygon>
                                        <polygon id="Rectangle-4" fill="#CEE8E3" mask="url(#mask-22)" transform="translate(266.902127, 387.483427) rotate(27.000000) translate(-266.902127, -387.483427) " points="198.758156 368.035416 313.625592 368.358412 335.046098 406.601236 218.659048 406.931438"></polygon>
                                        <polygon id="Rectangle" fill="#E6F8F5" mask="url(#mask-22)" transform="translate(282.304631, 355.059999) rotate(25.000000) translate(-282.304631, -355.059999) " points="234.116088 336.647449 349.985168 339.896723 329.410285 373.47255 214.624094 369.140185"></polygon>
                                        <polygon id="Rectangle-4-Copy" fill="#CEE8E3" mask="url(#mask-22)" transform="translate(360.662048, 206.206561) rotate(27.000000) translate(-360.662048, -206.206561) " points="293.984718 189.171153 408.852154 189.494149 427.339377 222.444733 311.427505 223.241968"></polygon>
                                    </g>
                                </g>
                            </g>
                        </g>
                    </g>
                </g>
            </g>
            <g id="Group-6-Copy" transform="translate(-260.000000, 44.000000)">
                <mask id="mask-24" fill="white">
                    <use xlink:href="#path-23"></use>
                </mask>
                <g id="Rectangle-11"></g>
                <g id="Group-5" mask="url(#mask-24)">
                    <g transform="translate(244.500000, 182.500000) rotate(-180.000000) translate(-244.500000, -182.500000) translate(51.000000, 42.000000)">
                        <mask id="mask-26" fill="white">
                            <use xlink:href="#path-25"></use>
                        </mask>
                        <g id="Rectangle-10" stroke="none" fill="none"></g>
                        <g id="Group-4" stroke="none" stroke-width="1" fill="none" fill-rule="evenodd" mask="url(#mask-26)">
                            <mask id="mask-28" fill="white">
                                <use xlink:href="#path-27"></use>
                            </mask>
                            <g id="Rectangle-9"></g>
                            <g id="stairs" mask="url(#mask-28)">
                                <g transform="translate(-352.000000, -155.000000)">
                                    <g id="Group">
                                        <mask id="mask-30" fill="white">
                                            <use xlink:href="#path-29"></use>
                                        </mask>
                                        <g id="Rectangle-6"></g>
                                        <path d="M346.400905,-76.84349 L430.866216,-76.84349 L430.866216,256 L124.971599,435.458645 C124.971599,435.458645 111.597618,362.387192 120.077188,343.395893 C128.556759,324.404595 346.400905,-76.84349 346.400905,-76.84349 Z" id="Rectangle-5" fill="#8EB8B1" mask="url(#mask-30)"></path>
                                        <polygon id="Rectangle-4" fill="#CEE7E3" mask="url(#mask-30)" transform="translate(104.014435, 325.180804) rotate(27.000000) translate(-104.014435, -325.180804) " points="37.3371055 308.145396 152.204541 308.468392 170.691765 341.418976 54.779892 342.216211"></polygon>
                                        <polygon id="Rectangle" fill="#E6F8F5" mask="url(#mask-30)" transform="translate(119.628437, 295.572878) rotate(25.000000) translate(-119.628437, -295.572878) " points="71.4398947 277.160328 187.308975 280.409601 166.734091 313.985428 51.9478999 309.653064"></polygon>
                                        <polygon id="Rectangle-4" fill="#CEE8E3" mask="url(#mask-30)" transform="translate(135.338241, 265.693682) rotate(27.000000) translate(-135.338241, -265.693682) " points="68.6609119 248.658275 183.528348 248.98127 202.015571 281.931855 86.1036984 282.72909"></polygon>
                                        <polygon id="Rectangle" fill="#E6F8F5" mask="url(#mask-30)" transform="translate(150.952244, 236.085756) rotate(25.000000) translate(-150.952244, -236.085756) " points="102.763701 217.673206 218.632781 220.92248 198.057898 254.498307 83.2717064 250.165942"></polygon>
                                        <polygon id="Rectangle" fill="#E6F8F5" mask="url(#mask-30)" transform="translate(88.304631, 355.059999) rotate(25.000000) translate(-88.304631, -355.059999) " points="40.1160883 336.647449 155.985168 339.896723 135.410285 373.47255 20.6240935 369.140185"></polygon>
                                        <polygon id="Rectangle-4-Copy" fill="#CEE8E3" mask="url(#mask-30)" transform="translate(166.662048, 206.206561) rotate(27.000000) translate(-166.662048, -206.206561) " points="99.9847183 189.171153 214.852154 189.494149 233.339377 222.444733 117.427505 223.241968"></polygon>
                                    </g>
                                    <g id="Group-2" transform="translate(195.000000, 0.000000)">
                                        <mask id="mask-32" fill="white">
                                            <use xlink:href="#path-31"></use>
                                        </mask>
                                        <g id="Rectangle-6"></g>
                                        <path d="M346.400905,-76.84349 L430.866216,-76.84349 L430.866216,256 L124.971599,435.458645 C124.971599,435.458645 111.597618,362.387192 120.077188,343.395893 C128.556759,324.404595 346.400905,-76.84349 346.400905,-76.84349 Z" id="Rectangle-5" fill="#8EB8B1" mask="url(#mask-32)"></path>
                                        <polygon id="Rectangle-4" fill="#CEE8E3" mask="url(#mask-32)" transform="translate(104.014435, 325.180804) rotate(27.000000) translate(-104.014435, -325.180804) " points="37.3371055 308.145396 152.204541 308.468392 170.691765 341.418976 54.779892 342.216211"></polygon>
                                        <polygon id="Rectangle" fill="#E6F8F5" mask="url(#mask-32)" transform="translate(119.628437, 295.572878) rotate(25.000000) translate(-119.628437, -295.572878) " points="71.4398947 277.160328 187.308975 280.409601 166.734091 313.985428 51.9478999 309.653064"></polygon>
                                        <polygon id="Rectangle-4" fill="#CEE8E3" mask="url(#mask-32)" transform="translate(135.338241, 265.693682) rotate(27.000000) translate(-135.338241, -265.693682) " points="68.6609119 248.658275 183.528348 248.98127 202.015571 281.931855 86.1036984 282.72909"></polygon>
                                        <polygon id="Rectangle" fill="#E6F8F5" mask="url(#mask-32)" transform="translate(150.952244, 236.085756) rotate(25.000000) translate(-150.952244, -236.085756) " points="102.763701 217.673206 218.632781 220.92248 198.057898 254.498307 83.2717064 250.165942"></polygon>
                                        <polygon id="Rectangle-4" fill="#CEE8E3" mask="url(#mask-32)" transform="translate(72.902127, 387.483427) rotate(27.000000) translate(-72.902127, -387.483427) " points="4.75815596 368.035416 119.625592 368.358412 141.046098 406.601236 24.6590482 406.931438"></polygon>
                                        <polygon id="Rectangle" fill="#E6F8F5" mask="url(#mask-32)" transform="translate(88.304631, 355.059999) rotate(25.000000) translate(-88.304631, -355.059999) " points="40.1160883 336.647449 155.985168 339.896723 135.410285 373.47255 20.6240935 369.140185"></polygon>
                                        <polygon id="Rectangle-4-Copy" fill="#CEE8E3" mask="url(#mask-32)" transform="translate(166.662048, 206.206561) rotate(27.000000) translate(-166.662048, -206.206561) " points="99.9847183 189.171153 214.852154 189.494149 233.339377 222.444733 117.427505 223.241968"></polygon>
                                        <mask id="mask-34" fill="white">
                                            <use xlink:href="#path-33"></use>
                                        </mask>
                                        <g id="Rectangle-6"></g>
                                        <path d="M540.400905,-76.84349 L624.866216,-76.84349 L624.866216,256 L318.971599,435.458645 C318.971599,435.458645 305.597618,362.387192 314.077188,343.395893 C322.556759,324.404595 540.400905,-76.84349 540.400905,-76.84349 Z" id="Rectangle-5" fill="#8EB8B1" mask="url(#mask-34)"></path>
                                        <polygon id="Rectangle-4" fill="#CEE8E3" mask="url(#mask-34)" transform="translate(298.014435, 325.180804) rotate(27.000000) translate(-298.014435, -325.180804) " points="231.337105 308.145396 346.204541 308.468392 364.691765 341.418976 248.779892 342.216211"></polygon>
                                        <polygon id="Rectangle" fill="#E6F8F5" mask="url(#mask-34)" transform="translate(313.628437, 295.572878) rotate(25.000000) translate(-313.628437, -295.572878) " points="265.439895 277.160328 381.308975 280.409601 360.734091 313.985428 245.9479 309.653064"></polygon>
                                        <polygon id="Rectangle-4" fill="#CEE8E3" mask="url(#mask-34)" transform="translate(329.338241, 265.693682) rotate(27.000000) translate(-329.338241, -265.693682) " points="262.660912 248.658275 377.528348 248.98127 396.015571 281.931855 280.103698 282.72909"></polygon>
                                        <polygon id="Rectangle" fill="#E6F8F5" mask="url(#mask-34)" transform="translate(344.952244, 236.085756) rotate(25.000000) translate(-344.952244, -236.085756) " points="296.763701 217.673206 412.632781 220.92248 392.057898 254.498307 277.271706 250.165942"></polygon>
                                        <polygon id="Rectangle-4" fill="#CEE8E3" mask="url(#mask-34)" transform="translate(266.902127, 387.483427) rotate(27.000000) translate(-266.902127, -387.483427) " points="198.758156 368.035416 313.625592 368.358412 335.046098 406.601236 218.659048 406.931438"></polygon>
                                        <polygon id="Rectangle" fill="#E6F8F5" mask="url(#mask-34)" transform="translate(282.304631, 355.059999) rotate(25.000000) translate(-282.304631, -355.059999) " points="234.116088 336.647449 349.985168 339.896723 329.410285 373.47255 214.624094 369.140185"></polygon>
                                        <polygon id="Rectangle-4-Copy" fill="#CEE8E3" mask="url(#mask-34)" transform="translate(360.662048, 206.206561) rotate(27.000000) translate(-360.662048, -206.206561) " points="293.984718 189.171153 408.852154 189.494149 427.339377 222.444733 311.427505 223.241968"></polygon>
                                    </g>
                                </g>
                            </g>
                        </g>
                    </g>
                </g>
            </g>
        </g>
        <g id="Artboard-3-Copy" transform="translate(0.000000, 280.000000)">
            <g id="Group-6">
                <mask id="mask-36" fill="white">
                    <use xlink:href="#path-35"></use>
                </mask>
                <g id="Rectangle-11"></g>
                <g id="Group-5-Copy-3" mask="url(#mask-36)">
                    <g transform="translate(338.500000, 4.500000) rotate(-180.000000) translate(-338.500000, -4.500000) translate(145.000000, -136.000000)">
                        <mask id="mask-38" fill="white">
                            <use xlink:href="#path-37"></use>
                        </mask>
                        <g id="Rectangle-10" stroke="none" fill="none"></g>
                        <g id="Group-4" stroke="none" stroke-width="1" fill="none" fill-rule="evenodd" mask="url(#mask-38)">
                            <mask id="mask-40" fill="white">
                                <use xlink:href="#path-39"></use>
                            </mask>
                            <g id="Rectangle-9"></g>
                            <g id="stairs" mask="url(#mask-40)">
                                <g transform="translate(-352.000000, -155.000000)">
                                    <g id="Group-2" transform="translate(195.000000, 0.000000)">
                                        <mask id="mask-42" fill="white">
                                            <use xlink:href="#path-41"></use>
                                        </mask>
                                        <g id="Rectangle-6"></g>
                                        <path d="M346.400905,-76.84349 L430.866216,-76.84349 L430.866216,256 L124.971599,435.458645 C124.971599,435.458645 111.597618,362.387192 120.077188,343.395893 C128.556759,324.404595 346.400905,-76.84349 346.400905,-76.84349 Z" id="Rectangle-5" fill="#8EB8B1" mask="url(#mask-42)"></path>
                                        <mask id="mask-44" fill="white">
                                            <use xlink:href="#path-43"></use>
                                        </mask>
                                        <g id="Rectangle-6"></g>
                                        <path d="M540.400905,-76.84349 L624.866216,-76.84349 L624.866216,256 L318.971599,435.458645 C318.971599,435.458645 305.597618,362.387192 314.077188,343.395893 C322.556759,324.404595 540.400905,-76.84349 540.400905,-76.84349 Z" id="Rectangle-5" fill="#8EB8B1" mask="url(#mask-44)"></path>
                                        <polygon id="Rectangle-4" fill="#CEE8E3" mask="url(#mask-44)" transform="translate(298.014435, 325.180804) rotate(27.000000) translate(-298.014435, -325.180804) " points="231.337105 308.145396 346.204541 308.468392 364.691765 341.418976 248.779892 342.216211"></polygon>
                                        <polygon id="Rectangle" fill="#E6F8F5" mask="url(#mask-44)" transform="translate(313.628437, 295.572878) rotate(25.000000) translate(-313.628437, -295.572878) " points="265.439895 277.160328 381.308975 280.409601 360.734091 313.985428 245.9479 309.653064"></polygon>
                                        <polygon id="Rectangle-4" fill="#CEE8E3" mask="url(#mask-44)" transform="translate(329.338241, 265.693682) rotate(27.000000) translate(-329.338241, -265.693682) " points="262.660912 248.658275 377.528348 248.98127 396.015571 281.931855 280.103698 282.72909"></polygon>
                                        <polygon id="Rectangle-4" fill="#CEE8E3" mask="url(#mask-44)" transform="translate(266.902127, 387.483427) rotate(27.000000) translate(-266.902127, -387.483427) " points="198.758156 368.035416 313.625592 368.358412 335.046098 406.601236 218.659048 406.931438"></polygon>
                                        <polygon id="Rectangle" fill="#E6F8F5" mask="url(#mask-44)" transform="translate(282.304631, 355.059999) rotate(25.000000) translate(-282.304631, -355.059999) " points="234.116088 336.647449 349.985168 339.896723 329.410285 373.47255 214.624094 369.140185"></polygon>
                                    </g>
                                    <g id="Group-3" transform="translate(582.000000, 0.000000)">
                                        <mask id="mask-46" fill="white">
                                            <use xlink:href="#path-45"></use>
                                        </mask>
                                        <g id="Rectangle-6"></g>
                                        <path d="M346.400905,-76.84349 L430.866216,-76.84349 L430.866216,256 L124.971599,435.458645 C124.971599,435.458645 111.597618,362.387192 120.077188,343.395893 C128.556759,324.404595 346.400905,-76.84349 346.400905,-76.84349 Z" id="Rectangle-5" fill="#8EB8B1" mask="url(#mask-46)"></path>
                                        <polygon id="Rectangle-4" fill="#CEE8E3" mask="url(#mask-46)" transform="translate(104.014435, 325.180804) rotate(27.000000) translate(-104.014435, -325.180804) " points="37.3371055 308.145396 152.204541 308.468392 170.691765 341.418976 54.779892 342.216211"></polygon>
                                        <polygon id="Rectangle" fill="#E6F8F5" mask="url(#mask-46)" transform="translate(119.628437, 295.572878) rotate(25.000000) translate(-119.628437, -295.572878) " points="71.4398947 277.160328 187.308975 280.409601 166.734091 313.985428 51.9478999 309.653064"></polygon>
                                        <polygon id="Rectangle-4" fill="#CEE8E3" mask="url(#mask-46)" transform="translate(135.338241, 265.693682) rotate(27.000000) translate(-135.338241, -265.693682) " points="68.6609119 248.658275 183.528348 248.98127 202.015571 281.931855 86.1036984 282.72909"></polygon>
                                        <polygon id="Rectangle-4" fill="#CEE8E3" mask="url(#mask-46)" transform="translate(72.902127, 387.483427) rotate(27.000000) translate(-72.902127, -387.483427) " points="4.75815596 368.035416 119.625592 368.358412 141.046098 406.601236 24.6590482 406.931438"></polygon>
                                        <polygon id="Rectangle" fill="#E6F8F5" mask="url(#mask-46)" transform="translate(88.304631, 355.059999) rotate(25.000000) translate(-88.304631, -355.059999) " points="40.1160883 336.647449 155.985168 339.896723 135.410285 373.47255 20.6240935 369.140185"></polygon>
                                    </g>
                                </g>
                            </g>
                        </g>
                    </g>
                </g>
                <g id="Group-5-Copy-2" mask="url(#mask-36)">
                    <g transform="translate(-47.500000, 4.500000) rotate(-180.000000) translate(47.500000, -4.500000) translate(-241.000000, -136.000000)">
                        <mask id="mask-48" fill="white">
                            <use xlink:href="#path-47"></use>
                        </mask>
                        <g id="Rectangle-10" stroke="none" fill="none"></g>
                        <g id="Group-4" stroke="none" stroke-width="1" fill="none" fill-rule="evenodd" mask="url(#mask-48)">
                            <mask id="mask-50" fill="white">
                                <use xlink:href="#path-49"></use>
                            </mask>
                            <g id="Rectangle-9"></g>
                            <g id="stairs" mask="url(#mask-50)">
                                <g transform="translate(-352.000000, -155.000000)">
                                    <g id="Group">
                                        <mask id="mask-52" fill="white">
                                            <use xlink:href="#path-51"></use>
                                        </mask>
                                        <g id="Rectangle-6"></g>
                                        <path d="M346.400905,-76.84349 L430.866216,-76.84349 L430.866216,256 L124.971599,435.458645 C124.971599,435.458645 111.597618,362.387192 120.077188,343.395893 C128.556759,324.404595 346.400905,-76.84349 346.400905,-76.84349 Z" id="Rectangle-5" fill="#8EB8B1" mask="url(#mask-52)"></path>
                                        <polygon id="Rectangle-4" fill="#CEE7E3" mask="url(#mask-52)" transform="translate(104.014435, 325.180804) rotate(27.000000) translate(-104.014435, -325.180804) " points="37.3371055 308.145396 152.204541 308.468392 170.691765 341.418976 54.779892 342.216211"></polygon>
                                        <polygon id="Rectangle" fill="#E6F8F5" mask="url(#mask-52)" transform="translate(119.628437, 295.572878) rotate(25.000000) translate(-119.628437, -295.572878) " points="71.4398947 277.160328 187.308975 280.409601 166.734091 313.985428 51.9478999 309.653064"></polygon>
                                        <polygon id="Rectangle-4" fill="#CEE8E3" mask="url(#mask-52)" transform="translate(135.338241, 265.693682) rotate(27.000000) translate(-135.338241, -265.693682) " points="68.6609119 248.658275 183.528348 248.98127 202.015571 281.931855 86.1036984 282.72909"></polygon>
                                        <polygon id="Rectangle-4" fill="#CEE7E3" mask="url(#mask-52)" transform="translate(72.902127, 387.483427) rotate(27.000000) translate(-72.902127, -387.483427) " points="4.75815596 368.035416 119.625592 368.358412 141.046098 406.601236 24.6590482 406.931438"></polygon>
                                        <polygon id="Rectangle" fill="#E6F8F5" mask="url(#mask-52)" transform="translate(88.304631, 355.059999) rotate(25.000000) translate(-88.304631, -355.059999) " points="40.1160883 336.647449 155.985168 339.896723 135.410285 373.47255 20.6240935 369.140185"></polygon>
                                    </g>
                                    <g id="Group-2" transform="translate(195.000000, 0.000000)">
                                        <mask id="mask-54" fill="white">
                                            <use xlink:href="#path-53"></use>
                                        </mask>
                                        <g id="Rectangle-6"></g>
                                        <path d="M346.400905,-76.84349 L430.866216,-76.84349 L430.866216,256 L124.971599,435.458645 C124.971599,435.458645 111.597618,362.387192 120.077188,343.395893 C128.556759,324.404595 346.400905,-76.84349 346.400905,-76.84349 Z" id="Rectangle-5" fill="#8EB8B1" mask="url(#mask-54)"></path>
                                        <polygon id="Rectangle-4" fill="#CEE8E3" mask="url(#mask-54)" transform="translate(104.014435, 325.180804) rotate(27.000000) translate(-104.014435, -325.180804) " points="37.3371055 308.145396 152.204541 308.468392 170.691765 341.418976 54.779892 342.216211"></polygon>
                                        <polygon id="Rectangle" fill="#E6F8F5" mask="url(#mask-54)" transform="translate(119.628437, 295.572878) rotate(25.000000) translate(-119.628437, -295.572878) " points="71.4398947 277.160328 187.308975 280.409601 166.734091 313.985428 51.9478999 309.653064"></polygon>
                                        <polygon id="Rectangle-4" fill="#CEE8E3" mask="url(#mask-54)" transform="translate(135.338241, 265.693682) rotate(27.000000) translate(-135.338241, -265.693682) " points="68.6609119 248.658275 183.528348 248.98127 202.015571 281.931855 86.1036984 282.72909"></polygon>
                                        <polygon id="Rectangle-4" fill="#CEE8E3" mask="url(#mask-54)" transform="translate(72.902127, 387.483427) rotate(27.000000) translate(-72.902127, -387.483427) " points="4.75815596 368.035416 119.625592 368.358412 141.046098 406.601236 24.6590482 406.931438"></polygon>
                                        <polygon id="Rectangle" fill="#E6F8F5" mask="url(#mask-54)" transform="translate(88.304631, 355.059999) rotate(25.000000) translate(-88.304631, -355.059999) " points="40.1160883 336.647449 155.985168 339.896723 135.410285 373.47255 20.6240935 369.140185"></polygon>
                                        <mask id="mask-56" fill="white">
                                            <use xlink:href="#path-55"></use>
                                        </mask>
                                        <g id="Rectangle-6"></g>
                                        <polygon id="Rectangle-4" fill="#CEE8E3" mask="url(#mask-56)" transform="translate(298.014435, 325.180804) rotate(27.000000) translate(-298.014435, -325.180804) " points="231.337105 308.145396 346.204541 308.468392 364.691765 341.418976 248.779892 342.216211"></polygon>
                                        <polygon id="Rectangle" fill="#E6F8F5" mask="url(#mask-56)" transform="translate(313.628437, 295.572878) rotate(25.000000) translate(-313.628437, -295.572878) " points="265.439895 277.160328 381.308975 280.409601 360.734091 313.985428 245.9479 309.653064"></polygon>
                                        <polygon id="Rectangle-4" fill="#CEE8E3" mask="url(#mask-56)" transform="translate(329.338241, 265.693682) rotate(27.000000) translate(-329.338241, -265.693682) " points="262.660912 248.658275 377.528348 248.98127 396.015571 281.931855 280.103698 282.72909"></polygon>
                                        <polygon id="Rectangle-4" fill="#CEE8E3" mask="url(#mask-56)" transform="translate(266.902127, 387.483427) rotate(27.000000) translate(-266.902127, -387.483427) " points="198.758156 368.035416 313.625592 368.358412 335.046098 406.601236 218.659048 406.931438"></polygon>
                                        <polygon id="Rectangle" fill="#E6F8F5" mask="url(#mask-56)" transform="translate(282.304631, 355.059999) rotate(25.000000) translate(-282.304631, -355.059999) " points="234.116088 336.647449 349.985168 339.896723 329.410285 373.47255 214.624094 369.140185"></polygon>
                                    </g>
                                </g>
                            </g>
                        </g>
                    </g>
                </g>
            </g>
        </g>
    </g>
</svg>