<?xml version="1.0" encoding="UTF-8"?>
<svg width="271px" height="44px" viewBox="0 0 271 44" version="1.1" xmlns="http://www.w3.org/2000/svg" xmlns:xlink="http://www.w3.org/1999/xlink">
    <!-- Generator: Sketch 42 (36781) - http://www.bohemiancoding.com/sketch -->
    <title>uvic-logo</title>
    <desc>Created with Sketch.</desc>
    <defs>
        <polygon id="path-1" points="17.6810065 0.0586666667 0.0487012987 0.0586666667 0.0487012987 43.9511111 35.3133117 43.9511111 35.3133117 0.0586666667"></polygon>
    </defs>
    <g id="Page-1" stroke="none" stroke-width="1" fill="none" fill-rule="evenodd">
        <g id="Desktop-HD" transform="translate(-440.000000, -726.000000)">
            <g id="uvic-logo" transform="translate(440.000000, 726.000000)">
                <path d="M151,2.5 L151,41" id="Line" stroke="#FFFFFF" stroke-width="2" stroke-linecap="square"></path>
                <path d="M186.54,27 L191.36,13.52 L189.5,13.52 L187.22,20.18 C186.62,21.94 186.06,23.64 185.68,25.2 L185.64,25.2 C185.28,23.62 184.78,21.98 184.2,20.16 L182.1,13.52 L180.22,13.52 L184.62,27 L186.54,27 Z M194.66,27 L194.66,17.32 L192.9,17.32 L192.9,27 L194.66,27 Z M193.78,13.5 C193.14,13.5 192.68,13.98 192.68,14.6 C192.68,15.2 193.12,15.68 193.74,15.68 C194.44,15.68 194.88,15.2 194.86,14.6 C194.86,13.98 194.44,13.5 193.78,13.5 Z M197.36,26.54 C198.04,26.94 199.02,27.2 200.08,27.2 C202.38,27.2 203.7,26 203.7,24.3 C203.7,22.86 202.84,22.02 201.16,21.38 C199.9,20.9 199.32,20.54 199.32,19.74 C199.32,19.02 199.9,18.42 200.94,18.42 C201.84,18.42 202.54,18.74 202.92,18.98 L203.36,17.7 C202.82,17.38 201.96,17.1 200.98,17.1 C198.9,17.1 197.64,18.38 197.64,19.94 C197.64,21.1 198.46,22.06 200.2,22.68 C201.5,23.16 202,23.62 202,24.46 C202,25.26 201.4,25.9 200.12,25.9 C199.24,25.9 198.32,25.54 197.8,25.2 L197.36,26.54 Z M214.52,17.32 L212.76,17.32 L212.76,23.26 C212.76,23.58 212.7,23.9 212.6,24.16 C212.28,24.94 211.46,25.76 210.28,25.76 C208.68,25.76 208.12,24.52 208.12,22.68 L208.12,17.32 L206.36,17.32 L206.36,22.98 C206.36,26.38 208.18,27.22 209.7,27.22 C211.42,27.22 212.44,26.2 212.9,25.42 L212.94,25.42 L213.04,27 L214.6,27 C214.54,26.24 214.52,25.36 214.52,24.36 L214.52,17.32 Z M224.86,27 L223.26,27 L223.12,25.78 L223.06,25.78 C222.52,26.54 221.48,27.22 220.1,27.22 C218.14,27.22 217.14,25.84 217.14,24.44 C217.14,22.1 219.22,20.82 222.96,20.84 L222.96,20.64 C222.96,19.84 222.74,18.4 220.76,18.4 C219.86,18.4 218.92,18.68 218.24,19.12 L217.84,17.96 C218.64,17.44 219.8,17.1 221.02,17.1 C223.98,17.1 224.7,19.12 224.7,21.06 L224.7,24.68 C224.7,25.52 224.74,26.34 224.86,27 Z M223,23.74 L223,22.06 C221.08,22.02 218.9,22.36 218.9,24.24 C218.9,25.38 219.66,25.92 220.56,25.92 C221.82,25.92 222.62,25.12 222.9,24.3 C222.96,24.12 223,23.92 223,23.74 Z M228,27 L229.76,27 L229.76,12.8 L228,12.8 L228,27 Z M244.9,22.76 L240.12,22.76 L238.72,27 L236.92,27 L241.5,13.52 L243.6,13.52 L248.2,27 L246.34,27 L244.9,22.76 Z M240.48,21.4 L244.54,21.4 L243.22,17.52 C242.92,16.64 242.72,15.84 242.52,15.06 L242.48,15.06 C242.28,15.86 242.06,16.68 241.8,17.5 L240.48,21.4 Z M250.52,27 L252.26,27 L252.26,21.84 C252.26,21.54 252.3,21.26 252.34,21.02 C252.58,19.7 253.46,18.76 254.7,18.76 C254.94,18.76 255.12,18.78 255.3,18.82 L255.3,17.16 C255.14,17.12 255,17.1 254.8,17.1 C253.62,17.1 252.56,17.92 252.12,19.22 L252.04,19.22 L251.98,17.32 L250.44,17.32 C250.5,18.22 250.52,19.2 250.52,20.34 L250.52,27 Z M258.4,15 L258.4,17.32 L256.9,17.32 L256.9,18.66 L258.4,18.66 L258.4,23.94 C258.4,25.08 258.58,25.94 259.08,26.46 C259.5,26.94 260.16,27.2 260.98,27.2 C261.66,27.2 262.2,27.1 262.54,26.96 L262.46,25.64 C262.24,25.7 261.9,25.76 261.44,25.76 C260.46,25.76 260.12,25.08 260.12,23.88 L260.12,18.66 L262.64,18.66 L262.64,17.32 L260.12,17.32 L260.12,14.54 L258.4,15 Z M264.4,26.54 C265.08,26.94 266.06,27.2 267.12,27.2 C269.42,27.2 270.74,26 270.74,24.3 C270.74,22.86 269.88,22.02 268.2,21.38 C266.94,20.9 266.36,20.54 266.36,19.74 C266.36,19.02 266.94,18.42 267.98,18.42 C268.88,18.42 269.58,18.74 269.96,18.98 L270.4,17.7 C269.86,17.38 269,17.1 268.02,17.1 C265.94,17.1 264.68,18.38 264.68,19.94 C264.68,21.1 265.5,22.06 267.24,22.68 C268.54,23.16 269.04,23.62 269.04,24.46 C269.04,25.26 268.44,25.9 267.16,25.9 C266.28,25.9 265.36,25.54 264.84,25.2 L264.4,26.54 Z" id="Visual-Arts" fill="#FFFFFF"></path>
                <g id="UVic_hst_bk">
                    <path d="M45.8774351,5.46903704 L45.8774351,12.8341481 C45.8774351,15.303037 46.8969156,16.4519259 48.4553571,16.4519259 C50.1103896,16.4519259 51.1063312,15.3144444 51.1063312,12.8341481 L51.1063312,5.46903704 L53.4058442,5.46903704 L53.4058442,12.685037 C53.4058442,16.5757778 51.411526,18.3072593 48.3725649,18.3072593 C45.4699675,18.3072593 43.5779221,16.6719259 43.5779221,12.6972593 L43.5779221,5.46903704 L45.8774351,5.46903704" id="Fill-1" fill="#FFFFFF"></path>
                    <path d="M55.9220779,11.6901481 C55.9220779,10.6365926 55.887987,9.768 55.8465909,8.97681481 L57.8547078,8.97681481 L57.9683442,10.3473333 L58.0211039,10.3473333 C58.4237013,9.63925926 59.4074675,8.77148148 60.9180195,8.77148148 C62.5024351,8.77148148 64.148539,9.79651852 64.148539,12.6817778 L64.148539,18.1002963 L61.8482143,18.1002963 L61.8482143,12.9539259 C61.8482143,11.6445185 61.3693182,10.6463704 60.1152597,10.6463704 C59.1996753,10.6463704 58.5665584,11.2957778 58.3262987,12.0005926 C58.2556818,12.1904444 58.2215909,12.4699259 58.2215909,12.7331111 L58.2215909,18.1002963 L55.9220779,18.1002963 L55.9220779,11.6901481" id="Fill-2" fill="#FFFFFF"></path>
                    <path d="M67.7207792,7.56718519 C66.9180195,7.56718519 66.3904221,6.98296296 66.3928571,6.25044444 C66.3904221,5.51385185 66.9358766,4.94103704 67.7475649,4.94103704 C68.5689935,4.94103704 69.0917208,5.50733333 69.0998377,6.25044444 C69.1030844,6.98296296 68.5746753,7.56718519 67.7394481,7.56718519 L67.7207792,7.56718519 Z M66.5965909,18.1002963 L68.8952922,18.1002963 L68.8952922,8.97681481 L66.5965909,8.97681481 L66.5965909,18.1002963 Z" id="Fill-3" fill="#FFFFFF"></path>
                    <path d="M72.8238636,8.97681481 L74.2962662,13.6114815 C74.5551948,14.4132593 74.7483766,15.1482222 74.9163961,15.8905185 L74.9715909,15.8905185 C75.1428571,15.136 75.3441558,14.4197778 75.5900974,13.6114815 L77.0292208,8.97681481 L79.4456169,8.97681481 L75.9756494,18.1002963 L73.7118506,18.1002963 L70.3376623,8.97681481 L72.8238636,8.97681481" id="Fill-4" fill="#FFFFFF"></path>
                    <path d="M88.2743506,14.1777778 C88.3173701,13.9642963 88.3555195,13.6204444 88.3555195,13.1926667 C88.3555195,11.1939259 87.3928571,8.75437037 84.4391234,8.75437037 C81.5162338,8.75437037 79.9943182,11.1385185 79.9943182,13.6554815 C79.9943182,16.4519259 81.7224026,18.282 84.6737013,18.282 C85.9926948,18.282 87.0706169,18.0334815 87.849026,17.7026667 L87.5105519,16.1145926 C86.8141234,16.3704444 86.0576299,16.5366667 85.0008117,16.5366667 C83.5292208,16.5366667 82.2548701,15.8139259 82.1948052,14.1598519 L88.2743506,14.1777778 Z M82.1899351,12.553037 C82.2930195,11.6184444 82.8806818,10.3294074 84.2954545,10.3294074 C85.8344156,10.3294074 86.200487,11.7080741 86.1915584,12.553037 L82.1899351,12.553037 L82.1899351,12.553037 Z" id="Fill-5" fill="#FFFFFF"></path>
                    <path d="M90.2224026,11.9117778 C90.2224026,10.6895556 90.1972403,9.79 90.148539,8.97681481 L92.137987,8.97681481 L92.2232143,10.7115556 L92.286526,10.7115556 C92.7353896,9.42577778 93.7946429,8.77148148 94.775974,8.77148148 C94.9991883,8.77148148 95.1306818,8.77962963 95.3149351,8.82118519 L95.3149351,10.9951111 C95.099026,10.9535556 94.8993506,10.9282963 94.6217532,10.9282963 C93.5284091,10.9282963 92.7670455,11.6282222 92.5625,12.6736296 C92.5227273,12.8773333 92.5040584,13.120963 92.5040584,13.3694815 L92.5040584,18.1002963 L90.2037338,18.1002963 L90.2224026,11.9117778" id="Fill-6" fill="#FFFFFF"></path>
                    <path d="M96.7418831,15.9793333 C97.2491883,16.2946667 98.2378247,16.6442222 99.0608766,16.6442222 C100.07224,16.6442222 100.524351,16.2197037 100.524351,15.6208148 C100.524351,15.004 100.148539,14.6902963 99.0308442,14.291037 C97.2516234,13.6799259 96.5113636,12.707037 96.5194805,11.6265926 C96.5194805,10.0222222 97.8465909,8.77148148 99.9675325,8.77148148 C100.969968,8.77148148 101.844968,9.02325926 102.379058,9.31577778 L101.922078,10.9356296 C101.540584,10.7180741 100.804383,10.4108889 100.000812,10.4108889 C99.1826299,10.4108889 98.7280844,10.8166667 98.7280844,11.3764444 C98.7280844,11.9557778 99.1655844,12.2344444 100.314935,12.6548889 C101.968344,13.2423704 102.730519,14.088963 102.74026,15.4334074 C102.74026,17.0980741 101.448052,18.2982963 99.0478896,18.2982963 C97.9480519,18.2982963 96.9488636,18.0334815 96.2800325,17.6578519 L96.7418831,15.9793333" id="Fill-7" fill="#FFFFFF"></path>
                    <path d="M105.767045,7.56718519 C104.964286,7.56718519 104.435065,6.98296296 104.438312,6.25044444 C104.435065,5.51385185 104.982143,4.94103704 105.793831,4.94103704 C106.61526,4.94103704 107.137987,5.50733333 107.146104,6.25044444 C107.147727,6.98296296 106.620942,7.56718519 105.785714,7.56718519 L105.767045,7.56718519 Z M104.642857,18.1002963 L106.941558,18.1002963 L106.941558,8.97681481 L104.642857,8.97681481 L104.642857,18.1002963 Z" id="Fill-8" fill="#FFFFFF"></path>
                    <path d="M112.422078,6.63259259 L112.422078,8.97681481 L114.609578,8.97681481 L114.609578,10.6952593 L112.422078,10.6952593 L112.422078,14.7220741 C112.422078,15.8391852 112.718344,16.4054815 113.598214,16.4054815 C114.015422,16.4054815 114.230519,16.376963 114.491071,16.3052593 L114.536526,18.0611852 C114.191558,18.1915556 113.588474,18.2982963 112.864448,18.2982963 C112.019481,18.2982963 111.31737,18.0098519 110.888799,17.547037 C110.396104,17.0214815 110.170455,16.183037 110.170455,14.9877037 L110.170455,10.6952593 L108.874188,10.6952593 L108.874188,8.97681481 L110.170455,8.97681481 L110.170455,7.27874074 L112.422078,6.63259259" id="Fill-9" fill="#FFFFFF"></path>
                    <path d="M118.283279,8.97681481 L119.922078,13.868963 C120.103084,14.4336296 120.299513,15.1311111 120.434253,15.6371111 L120.487825,15.6371111 C120.629058,15.1245926 120.798701,14.4385185 120.969968,13.8502222 L122.393669,8.97681481 L124.843344,8.97681481 L122.566558,15.2044444 C121.320617,18.6095556 120.477273,20.1218519 119.405032,21.0686667 C118.503247,21.8598519 117.566558,22.1605185 116.995942,22.2354815 L116.477273,20.2937778 C116.862825,20.1968148 117.342532,19.9898519 117.804383,19.6631111 C118.241883,19.3754815 118.749188,18.8377037 119.065747,18.2086667 C119.156656,18.0514074 119.210227,17.9177778 119.210227,17.8045185 C119.210227,17.7042963 119.185065,17.569037 119.090097,17.3539259 L115.750812,8.97681481 L118.283279,8.97681481" id="Fill-10" fill="#FFFFFF"></path>
                    <path d="M47.4975649,36.5094074 C49.8019481,36.5094074 52.1477273,35.0052593 52.1477273,31.6522963 C52.1477273,28.886 50.3376623,26.9736296 47.6331169,26.9736296 C44.8944805,26.9736296 42.9310065,28.8159259 42.9310065,31.8095556 C42.9310065,34.7331111 44.9147727,36.5094074 47.4780844,36.5094074 L47.4975649,36.5094074 Z M47.5146104,34.8333333 C46.1477273,34.8333333 45.273539,33.506 45.273539,31.7508889 C45.273539,30.2296296 45.9358766,28.6488889 47.5487013,28.6488889 C49.1347403,28.6488889 49.7662338,30.2866667 49.7662338,31.7207407 C49.7662338,33.5573333 48.851461,34.8333333 47.5340909,34.8333333 L47.5146104,34.8333333 L47.5146104,34.8333333 Z" id="Fill-11" fill="#FFFFFF"></path>
                    <path d="M54.2962662,36.3040741 L54.2962662,28.899037 L53.0641234,28.899037 L53.0641234,27.1797778 L54.2962662,27.1797778 L54.2962662,26.7919259 C54.2962662,25.6096296 54.612013,24.4208148 55.3993506,23.6711852 C56.0722403,23.0299259 56.9797078,22.7903704 57.7784091,22.7903704 C58.3887987,22.7903704 58.8782468,22.893037 59.2362013,23.0168889 L59.0762987,24.7899259 C58.8271104,24.6994815 58.523539,24.6261481 58.0965909,24.6261481 C56.9594156,24.6261481 56.5795455,25.5851852 56.5795455,26.7031111 L56.5795455,27.1797778 L58.5665584,27.1797778 L58.5665584,28.899037 L56.5957792,28.899037 L56.5957792,36.3040741 L54.2962662,36.3040741" id="Fill-12" fill="#FFFFFF"></path>
                    <path d="M66.9456169,36.3040741 L62.8717532,23.6711852 L65.3806818,23.6711852 L67.0974026,29.4164444 C67.5827922,31.0077778 68.0008117,32.4874815 68.3279221,34.0152593 L68.3685065,34.0152593 C68.7021104,32.5241481 69.1582792,30.9833333 69.6469156,29.4498519 L71.4837662,23.6711852 L73.9301948,23.6711852 L69.5803571,36.3040741 L66.9456169,36.3040741" id="Fill-13" fill="#FFFFFF"></path>
                    <path d="M76.4448052,25.7701481 C75.6436688,25.7701481 75.1144481,25.1842963 75.1160714,24.4542222 C75.1144481,23.716 75.661526,23.1423704 76.4732143,23.1423704 C77.2930195,23.1423704 77.8157468,23.7094815 77.8238636,24.4542222 C77.8271104,25.1842963 77.2987013,25.7701481 76.463474,25.7701481 L76.4448052,25.7701481 Z M75.3206169,36.3032593 L77.6209416,36.3032593 L77.6209416,27.1797778 L75.3206169,27.1797778 L75.3206169,36.3032593 Z" id="Fill-14" fill="#FFFFFF"></path>
                    <path d="M86.7662338,36.0286667 C86.2913961,36.2543704 85.3433442,36.4996296 84.2012987,36.4996296 C81.3530844,36.4996296 79.5154221,34.6646667 79.5154221,31.8331852 C79.5154221,29.1011111 81.375,26.9777037 84.5722403,26.9777037 C85.4204545,26.9777037 86.2654221,27.1642963 86.7922078,27.3948889 L86.3831169,29.1296296 C86.0137987,28.9479259 85.463474,28.7727407 84.6452922,28.7727407 C82.8920455,28.7727407 81.8538961,30.0593333 81.862013,31.7313333 C81.862013,33.602963 83.0868506,34.6760741 84.6534091,34.6760741 C85.4399351,34.6760741 86.0089286,34.5041481 86.4577922,34.3159259 L86.7662338,36.0286667" id="Fill-15" fill="#FFFFFF"></path>
                    <path d="M91.3863636,24.8347407 L91.3863636,27.1797778 L93.5738636,27.1797778 L93.5738636,28.899037 L91.3863636,28.899037 L91.3863636,32.9234074 C91.3863636,34.0405185 91.6826299,34.6092593 92.5625,34.6092593 C92.9797078,34.6092593 93.1948052,34.5782963 93.4553571,34.5074074 L93.5008117,36.2625185 C93.1558442,36.3928889 92.5527597,36.4996296 91.8287338,36.4996296 C90.9837662,36.4996296 90.2816558,36.2111852 89.8530844,35.7483704 C89.3603896,35.2252593 89.1347403,34.3843704 89.1347403,33.189037 L89.1347403,28.899037 L87.838474,28.899037 L87.838474,27.1797778 L89.1347403,27.1797778 L89.1347403,25.4808889 L91.3863636,24.8347407" id="Fill-16" fill="#FFFFFF"></path>
                    <path d="M99.1923701,36.5094074 C101.497565,36.5094074 103.842532,35.0052593 103.842532,31.6522963 C103.842532,28.886 102.033279,26.9736296 99.3287338,26.9736296 C96.5892857,26.9736296 94.625,28.8159259 94.625,31.8095556 C94.625,34.7331111 96.6095779,36.5094074 99.1737013,36.5094074 L99.1923701,36.5094074 Z M99.2102273,34.8333333 C97.8417208,34.8333333 96.9699675,33.506 96.9699675,31.7508889 C96.9699675,30.2296296 97.6306818,28.6488889 99.2435065,28.6488889 C100.830357,28.6488889 101.461039,30.2866667 101.461039,31.7207407 C101.461039,33.5573333 100.546266,34.8333333 99.2288961,34.8333333 L99.2102273,34.8333333 L99.2102273,34.8333333 Z" id="Fill-17" fill="#FFFFFF"></path>
                    <path d="M105.754058,30.1131111 C105.754058,28.8908889 105.730519,27.9921481 105.679383,27.1797778 L107.670455,27.1797778 L107.75487,28.9128889 L107.819805,28.9128889 C108.268669,27.6287407 109.32711,26.9736296 110.308442,26.9736296 C110.532468,26.9736296 110.663961,26.9825926 110.847403,27.0241481 L110.847403,29.1964444 C110.632305,29.1548889 110.43263,29.1312593 110.155032,29.1312593 C109.059253,29.1312593 108.300325,29.8295556 108.094156,30.8757778 C108.056006,31.0794815 108.035714,31.3239259 108.035714,31.5708148 L108.035714,36.3040741 L105.737013,36.3040741 L105.754058,30.1131111" id="Fill-18" fill="#FFFFFF"></path>
                    <path d="M113.523539,25.7701481 C112.721591,25.7701481 112.193994,25.1842963 112.195617,24.4542222 C112.193994,23.716 112.739448,23.1423704 113.551136,23.1423704 C114.371753,23.1423704 114.895292,23.7094815 114.903409,24.4542222 C114.905844,25.1842963 114.378247,25.7701481 113.543019,25.7701481 L113.523539,25.7701481 Z M112.400162,36.3032593 L114.698864,36.3032593 L114.698864,27.1797778 L112.400162,27.1797778 L112.400162,36.3032593 Z" id="Fill-19" fill="#FFFFFF"></path>
                    <path d="M124.221591,30.8195556 C124.221591,28.8175556 123.38961,26.9736296 120.474026,26.9736296 C119.043831,26.9736296 117.867695,27.3647407 117.179383,27.7835556 L117.636364,29.2811852 C118.254058,28.8876296 119.188312,28.6 120.079545,28.6 C121.688312,28.5934815 121.924513,29.5908148 121.924513,30.1897037 L121.924513,30.3404444 C118.576299,30.3282222 116.532468,31.4925926 116.532468,33.7960741 C116.532468,35.186963 117.555195,36.5094074 119.399351,36.5094074 C120.575487,36.5094074 121.526786,36.0058519 122.076299,35.2871852 L122.132305,35.2871852 L122.290584,36.3040741 L124.362825,36.3040741 C124.262987,35.7402222 124.221591,34.9351852 124.221591,34.1057037 L124.221591,30.8195556 Z M121.986201,33.0953333 C121.986201,33.2558519 121.970779,33.4375556 121.921266,33.5964444 C121.701299,34.2654074 121.039773,34.8602222 120.123377,34.8602222 C119.397727,34.8602222 118.8125,34.438963 118.8125,33.5459259 C118.8125,32.1566667 120.364448,31.8128148 121.986201,31.8348148 L121.986201,33.0953333 L121.986201,33.0953333 Z" id="Fill-20" fill="#FFFFFF"></path>
                    <polyline id="Fill-21" points="0.487012987 0.572814815 0.487012987 23.0837037 1.05275974 28.4101481 3.31655844 33.7365926 6.85308442 37.8554815 11.0974026 41.263037 14.8465909 42.8967407 17.5340909 43.5355556 20.5762987 43.0385185 24.2556818 41.5474074 26.9423701 39.5584444 29.5600649 37.1441481 32.2483766 33.5931852 33.6631494 30.5408889 34.6534091 27.2742963 34.9366883 24.2912593 34.9366883 0.501925926 0.487012987 0.572814815"></polyline>
                    <path d="M28.2410714,20.2815556 L28.4521104,20.2815556 C28.3823052,20.209037 28.3060065,20.1348889 28.2451299,20.0648148 L28.2410714,20.2815556" id="Fill-22" fill="#1A1918"></path>
                    <g id="Group-26">
                        <mask id="mask-2" fill="white">
                            <use xlink:href="#path-1"></use>
                        </mask>
                        <g id="Clip-24"></g>
                        <path d="M7.14935065,20.0648148 C7.08766234,20.1348889 7.01217532,20.209037 6.94155844,20.2815556 L7.15340909,20.2815556 L7.14935065,20.0648148" id="Fill-23" fill="#1A1918" mask="url(#mask-2)"></path>
                        <path d="M34.3457792,15.5262963 L0.966720779,15.5262963 L0.966720779,1.02911111 L34.3457792,1.02911111 L34.3457792,15.5262963 Z M34.3457792,19.8040741 L34.3457792,20.0411852 L34.3457792,20.2815556 L29.4099026,20.2815556 C29.0876623,20.0118519 28.8222403,19.7380741 28.6282468,19.5066667 L34.3457792,19.5066667 L34.3457792,19.8040741 Z M34.3409091,23.8235556 C34.338474,24.0337778 34.3311688,24.2423704 34.3222403,24.4493333 L30.7159091,24.4493333 L30.7540584,23.6760741 L34.3449675,23.6760741 C34.3433442,23.724963 34.3409091,23.7746667 34.3409091,23.8235556 Z M33.6663961,28.6171111 L30.5154221,28.6171111 L30.5527597,27.8422222 L33.8595779,27.8422222 C33.799513,28.102963 33.7353896,28.3628889 33.6663961,28.6171111 Z M31.9699675,32.7832593 L30.3149351,32.7832593 L30.351461,32.01 L32.3733766,32.01 C32.2443182,32.2707407 32.1095779,32.529037 31.9699675,32.7832593 Z M29.0340909,36.8622222 C29.0064935,36.8923704 28.9780844,36.9217037 28.950487,36.9502222 L6.39042208,36.9502222 C6.36282468,36.9217037 6.33441558,36.8923704 6.30681818,36.8622222 C6.10146104,36.6397778 5.90016234,36.4108148 5.70211039,36.1761481 L29.6347403,36.1761481 C29.4383117,36.4108148 29.2378247,36.6397778 29.0340909,36.8622222 Z M23.8944805,41.0275556 C23.8392857,41.0593333 23.7849026,41.0862222 23.7288961,41.118 L11.637987,41.118 C11.5819805,41.0862222 11.5267857,41.0593333 11.4715909,41.0275556 C11.1055195,40.8157037 10.7394481,40.5867407 10.375,40.3431111 L24.9845779,40.3431111 C24.6225649,40.5867407 24.2589286,40.8157037 23.8944805,41.0275556 Z M3.35551948,32.7832593 C3.2150974,32.529037 3.07954545,32.2707407 2.94967532,32.01 L5.0413961,32.01 L5.07954545,32.7832593 L3.35551948,32.7832593 Z M1.65016234,28.6171111 C1.57954545,28.3628889 1.51623377,28.102963 1.45616883,27.8422222 L4.84172078,27.8422222 L4.87824675,28.6171111 L1.65016234,28.6171111 Z M0.991071429,24.4493333 C0.982142857,24.2423704 0.974837662,24.0337778 0.972402597,23.8235556 C0.971590909,23.7746667 0.969967532,23.724963 0.968344156,23.6760741 L4.64042208,23.6760741 L4.67857143,24.4493333 L0.991071429,24.4493333 Z M18.0357143,29.8328148 L18.0357143,19.016963 C18.3977273,18.5671852 20.1728896,16.7167407 23.5202922,18.7912593 C23.6201299,18.8792593 24.0616883,19.2337037 24.7183442,19.5066667 C25.461039,19.8162963 26.4797078,20.02 27.5998377,19.6036296 C27.5965909,19.7845185 27.5917208,20.0151111 27.5868506,20.2815556 C27.5714286,21.1216296 27.5478896,22.343037 27.5243506,23.6760741 C27.5194805,23.9302963 27.5146104,24.1885926 27.5105519,24.4493333 C27.4878247,25.5965926 27.4667208,26.7805185 27.4464286,27.8422222 C27.4423701,28.1094815 27.4375,28.3685926 27.4326299,28.6171111 C27.4050325,30.131037 27.3839286,31.253037 27.3814935,31.385037 C25.8741883,31.9162963 24.336039,30.813037 24.3198052,30.8024444 C20.9066558,28.5038519 18.9375,29.1882963 18.0357143,29.8328148 Z M7.79464286,19.6036296 C8.91396104,20.02 9.93181818,19.8162963 10.6753247,19.5066667 C11.3319805,19.2337037 11.7743506,18.8792593 11.8741883,18.7912593 C15.3035714,16.667037 17.0803571,18.6576296 17.3806818,19.0471111 L17.3806818,29.8295556 C16.4902597,29.1793333 14.5211039,28.4818519 11.0852273,30.7926667 C11.0576299,30.813037 9.52029221,31.9162963 8.01298701,31.385037 C8.01055195,31.253037 7.98944805,30.131037 7.96185065,28.6171111 C7.95698052,28.3685926 7.95211039,28.1094815 7.94724026,27.8422222 C7.92775974,26.7805185 7.90503247,25.5965926 7.88392857,24.4493333 C7.87905844,24.1885926 7.87418831,23.9302963 7.86931818,23.6760741 C7.84496753,22.343037 7.82224026,21.1216296 7.80681818,20.2815556 C7.80113636,20.0151111 7.79707792,19.7845185 7.79464286,19.6036296 Z M5.29464286,23.6760741 C5.23863636,22.4978519 5.19805195,21.6667407 5.19318182,21.5624444 C5.94155844,21.2071852 6.51866883,20.7182963 6.94155844,20.2815556 C7.01217532,20.209037 7.08766234,20.1348889 7.14935065,20.0648148 L7.29220779,27.8422222 L7.30762987,28.6171111 L7.36688312,31.8397037 L7.55681818,31.9244444 C7.63149351,31.9578519 7.70616883,31.9831111 7.78165584,32.01 C8.61282468,32.309037 9.42613636,32.2137037 10.0779221,32.01 C10.8693182,31.7614815 11.4204545,31.3605926 11.4626623,31.3288148 C14.4464286,29.3235556 16.1363636,29.7961481 16.9090909,30.2997037 C17.3149351,30.5205185 17.523539,30.9091852 17.523539,30.9091852 C17.523539,30.9091852 17.3766234,31.4974815 17.0121753,32.01 C16.9862013,32.0466667 16.9618506,32.0833333 16.9334416,32.1183704 C16.7232143,32.3758519 16.450487,32.5893333 16.150974,32.7832593 C13.3392857,34.6011111 7.07792208,33.8148148 5.77435065,33.6257778 C5.77029221,33.5524444 5.75649351,33.2452593 5.73376623,32.7832593 C5.72321429,32.5591852 5.71022727,32.3017037 5.69724026,32.01 C5.6525974,31.094963 5.59496753,29.8874074 5.53246753,28.6171111 C5.5211039,28.3612593 5.50892857,28.1013333 5.49594156,27.8422222 C5.43912338,26.6648148 5.38230519,25.4727407 5.33279221,24.4493333 C5.31980519,24.1771852 5.30762987,23.9205185 5.29464286,23.6760741 Z M19.9237013,33.9134074 C19.5722403,34.5375556 18.8417208,34.9115556 17.6915584,34.9131852 C17.6915584,34.9131852 17.6810065,34.9148148 17.6785714,34.9148148 L17.6785714,34.9131852 C16.5292208,34.9115556 15.8084416,34.5375556 15.4586039,33.9134074 C16.1753247,33.5711852 16.7459416,33.1939259 17.1785714,32.7832593 L17.1607143,32.7832593 C17.3660714,32.5811852 17.5462662,32.3603704 17.6939935,32.1167407 C17.8417208,32.3603704 18.0219156,32.5811852 18.2280844,32.7832593 L18.2029221,32.7832593 C18.6355519,33.1939259 19.2061688,33.5711852 19.9237013,33.9134074 Z M30.0974026,23.6760741 C30.086039,23.9205185 30.0738636,24.1771852 30.0608766,24.4493333 C30.0121753,25.4743704 29.9537338,26.6648148 29.8977273,27.8422222 C29.8847403,28.1013333 29.8725649,28.3612593 29.8595779,28.6171111 C29.799513,29.8874074 29.7410714,31.094963 29.6972403,32.01 C29.6826299,32.3017037 29.6712662,32.5591852 29.6599026,32.7832593 C29.637987,33.2452593 29.6233766,33.5524444 29.6193182,33.6257778 C28.3157468,33.8148148 22.0503247,34.6011111 19.237013,32.7832593 C18.9350649,32.5877037 18.661526,32.3725926 18.450487,32.1134815 C18.4212662,32.0800741 18.3977273,32.045037 18.3717532,32.01 C17.9918831,31.5007407 17.8660714,30.9116296 17.8660714,30.9116296 C17.8660714,30.9116296 18.0819805,30.5237778 18.4780844,30.3021481 C19.2483766,29.7994074 20.9431818,29.3186667 23.9439935,31.3385926 C23.9797078,31.3638519 24.5267857,31.7614815 25.3141234,32.01 C25.9650974,32.2137037 26.7800325,32.309037 27.6136364,32.01 C27.6875,31.9831111 27.7621753,31.9578519 27.8376623,31.9244444 L28.0267857,31.8397037 L28.0868506,28.6171111 L28.101461,27.8422222 L28.2451299,20.0648148 C28.3060065,20.1348889 28.3823052,20.209037 28.4521104,20.2815556 C28.8733766,20.7182963 29.450487,21.2071852 30.1996753,21.5624444 C30.1939935,21.6667407 30.1542208,22.4978519 30.0974026,23.6760741 Z M0.966720779,19.8040741 L0.966720779,19.5066667 L6.76623377,19.5066667 C6.57142857,19.7380741 6.30681818,20.0118519 5.98295455,20.2815556 L0.966720779,20.2815556 L0.966720779,19.8040741 Z M34.8295455,0.0586666667 L0,0.0586666667 L0,23.6141481 C0,23.6834074 0.00487012987,23.7534815 0.00568181818,23.8235556 C0.0162337662,24.7353333 0.0900974026,25.6218519 0.218344156,26.4847407 C0.256493506,26.7454815 0.29788961,27.007037 0.347402597,27.2645185 C0.482142857,27.9693333 0.662337662,28.6505185 0.866071429,29.317037 C0.928571429,29.5199259 0.982142857,29.7260741 1.04951299,29.9240741 C1.1387987,30.1864444 1.23538961,30.4422963 1.33603896,30.698963 C1.50892857,31.1462963 1.69805195,31.5822222 1.89935065,32.01 C2.02272727,32.2707407 2.15097403,32.529037 2.2849026,32.7832593 C2.38636364,32.978 2.48944805,33.1686667 2.59659091,33.3577037 C2.74594156,33.6225185 2.89853896,33.8816296 3.05681818,34.1366667 C3.50162338,34.8504444 3.98376623,35.5308148 4.49431818,36.1761481 C4.67857143,36.4091852 4.86607143,36.6397778 5.05762987,36.8622222 C5.0836039,36.8923704 5.11038961,36.9217037 5.13636364,36.9502222 C5.32386364,37.1677778 5.51298701,37.3812593 5.70616883,37.5898519 C6.63230519,38.5831111 7.62012987,39.4720741 8.63555195,40.2494074 C8.67694805,40.2828148 8.71996753,40.3113333 8.76217532,40.3431111 C9.07954545,40.5818519 9.39772727,40.8091852 9.71834416,41.0275556 C9.76542208,41.0593333 9.81331169,41.0862222 9.86038961,41.118 C11.0324675,41.8994074 12.2150974,42.5325185 13.3563312,43.0018519 C14.0625,43.2935556 14.7516234,43.5225185 15.4099026,43.6862963 C16.2280844,43.89 17.0008117,44 17.6988636,44 C18.3928571,44 19.161526,43.89 19.976461,43.6862963 C20.6314935,43.5225185 21.3173701,43.2935556 22.0202922,43.0018519 C23.1550325,42.5325185 24.3336039,41.8994074 25.4991883,41.118 C25.5470779,41.0862222 25.5941558,41.0593333 25.6412338,41.0275556 C25.9594156,40.8091852 26.2775974,40.5818519 26.5933442,40.3431111 C26.6347403,40.3113333 26.6769481,40.2828148 26.7191558,40.2494074 C27.7288961,39.4720741 28.7126623,38.5831111 29.6339286,37.5898519 C29.8262987,37.3812593 30.0146104,37.1677778 30.2012987,36.9502222 C30.226461,36.9217037 30.2532468,36.8923704 30.2792208,36.8622222 C30.4699675,36.6397778 30.6574675,36.4091852 30.8409091,36.1761481 C31.3482143,35.5308148 31.8279221,34.8504444 32.2702922,34.1366667 C32.4285714,33.8816296 32.5811688,33.6225185 32.7280844,33.3577037 C32.8352273,33.1686667 32.9375,32.978 33.038961,32.7832593 C33.1712662,32.529037 33.299513,32.2707407 33.4228896,32.01 C33.6233766,31.5822222 33.8116883,31.1462963 33.9845779,30.698963 C34.0827922,30.4422963 34.1785714,30.1864444 34.2686688,29.9240741 C34.3603896,29.6535556 34.4448052,29.3781481 34.5251623,29.1011111 C34.6988636,28.5022222 34.849026,27.8919259 34.9675325,27.2645185 C35.0162338,27.007037 35.0576299,26.7454815 35.0957792,26.4847407 C35.224026,25.6218519 35.2970779,24.7353333 35.3076299,23.8235556 C35.3084416,23.7534815 35.3133117,23.6834074 35.3133117,23.6141481 L35.3133117,0.0586666667 L34.8295455,0.0586666667 L34.8295455,0.0586666667 Z" id="Fill-25" fill="#FFFFFF" mask="url(#mask-2)"></path>
                    </g>
                    <path d="M4.81412338,4.44155556 C4.79951299,4.4602963 4.66883117,4.62081481 4.45454545,4.63792593 C4.35146104,4.64525926 4.19805195,4.61918519 4.03246753,4.45866667 L3.94561688,4.37311111 L4.00324675,4.26474074 C4.01217532,4.24844444 4.09334416,4.10748148 4.27597403,4.06755556 C4.42938312,4.03088889 4.60064935,4.07977778 4.78084416,4.21096296 L4.9163961,4.30955556 L4.81412338,4.44155556 Z M13.3563312,10.507037 C12.7767857,10.5526667 12.148539,10.5681481 11.2305195,10.2691111 C7.1875,10.4442963 5.41477273,8.99881481 5.22402597,7.81651852 C5.10633117,7.09866667 5.56899351,6.52259259 6.375,6.38325926 C6.71103896,6.32377778 6.82954545,6.85748148 6.46590909,6.91696296 C5.95211039,7.00007407 5.68668831,7.31051852 5.75487013,7.73096296 C5.88149351,8.51155556 7.30844156,9.79651852 10.8327922,9.73948148 C10.8327922,9.73622222 10.8311688,9.73459259 10.8311688,9.73296296 C11.8612013,9.70118519 12.976461,9.21311111 12.976461,9.21311111 C12.976461,9.21311111 11.3538961,8.87903704 10.6964286,8.40725926 C10.6688312,8.38933333 12.1112013,7.37081481 12.262987,6.95281481 C10.8327922,7.08481481 9.46347403,7.0457037 8.24837662,6.84118519 C7.55600649,6.48592593 6.97077922,5.9897037 6.58685065,5.45192593 C6.51866883,3.43851852 5.46753247,3.21933333 4.82386364,3.21933333 C4.18019481,3.21933333 3.40665584,4.01622222 2.72808442,4.40977778 C3.16964286,4.89133333 4.02516234,5.23274074 4.01055195,6.41666667 C3.97564935,9.35 5.40097403,10.1387407 6.24594156,10.3147407 C6.28246753,11.5834074 5.97646104,12.5921481 5.46753247,13.5112593 C6.27678571,13.7491852 7.03409091,12.9971111 7.2987013,12.6801481 C7.70616883,13.2065185 8.14772727,13.5112593 9.12987013,13.7304444 C8.7224026,13.2497037 8.38311688,11.8482222 8.4163961,10.7971111 C9.16314935,11.1914815 10.8595779,12.8977037 11.6047078,13.9928148 C11.637987,13.6432593 11.6047078,12.6801481 11.5040584,11.8482222 C12.0454545,11.673037 12.6461039,11.338963 13.3563312,10.507037 L13.3563312,10.507037 Z" id="Fill-27" fill="#FFFFFF"></path>
                    <path d="M14.8547078,4.44155556 C14.8400974,4.4602963 14.7086039,4.62081481 14.4951299,4.63792593 C14.3928571,4.64525926 14.2378247,4.61918519 14.0730519,4.45866667 L13.9853896,4.37311111 L14.0446429,4.26474074 C14.0543831,4.24844444 14.1339286,4.10748148 14.3157468,4.06755556 C14.4707792,4.03088889 14.6396104,4.07977778 14.8214286,4.21096296 L14.9561688,4.30955556 L14.8547078,4.44155556 Z M23.3969156,10.507037 C22.8181818,10.5526667 22.1891234,10.5681481 21.2702922,10.2691111 C17.2288961,10.4442963 15.4561688,8.99881481 15.2646104,7.81651852 C15.1477273,7.09866667 15.6095779,6.52259259 16.4147727,6.38325926 C16.7508117,6.32377778 16.8701299,6.85748148 16.5064935,6.91696296 C15.9910714,7.00007407 15.726461,7.31051852 15.7962662,7.73096296 C15.9228896,8.51155556 17.349026,9.79651852 20.8733766,9.73948148 C20.8725649,9.73622222 20.8725649,9.73459259 20.8725649,9.73296296 C21.900974,9.70118519 23.0170455,9.21311111 23.0170455,9.21311111 C23.0170455,9.21311111 21.3944805,8.87903704 20.7362013,8.40725926 C20.7102273,8.38933333 22.1517857,7.37081481 22.3043831,6.95281481 C20.8725649,7.08481481 19.5040584,7.0457037 18.2881494,6.84118519 C17.5957792,6.48592593 17.0121753,5.9897037 16.6282468,5.45192593 C16.5584416,3.43851852 15.5089286,3.21933333 14.8660714,3.21933333 C14.2207792,3.21933333 13.4472403,4.01622222 12.7686688,4.40977778 C13.2086039,4.89133333 14.0665584,5.23274074 14.0503247,6.41666667 C14.0178571,9.35 15.4407468,10.1387407 16.2881494,10.3147407 C16.3222403,11.5834074 16.0162338,12.5921481 15.5089286,13.5112593 C16.3165584,13.7491852 17.075487,12.9971111 17.3400974,12.6801481 C17.7475649,13.2065185 18.1875,13.5112593 19.1696429,13.7304444 C18.7646104,13.2497037 18.424513,11.8482222 18.4577922,10.7971111 C19.2045455,11.1914815 20.900974,12.8977037 21.6452922,13.9928148 C21.6785714,13.6432593 21.6452922,12.6801481 21.5446429,11.8482222 C22.0852273,11.673037 22.6875,11.338963 23.3969156,10.507037 L23.3969156,10.507037 Z" id="Fill-28" fill="#FFFFFF"></path>
                    <path d="M24.8555195,4.44155556 C24.8409091,4.4602963 24.7102273,4.62081481 24.4967532,4.63792593 C24.3952922,4.64525926 24.2394481,4.61918519 24.075487,4.45866667 L23.9878247,4.37311111 L24.0446429,4.26474074 C24.0543831,4.24844444 24.1347403,4.10748148 24.3165584,4.06755556 C24.4724026,4.03088889 24.6420455,4.07977778 24.8230519,4.21096296 L24.9577922,4.30955556 L24.8555195,4.44155556 Z M33.3977273,10.507037 C32.8198052,10.5526667 32.1899351,10.5681481 31.2719156,10.2691111 C27.2288961,10.4442963 25.4569805,8.99881481 25.2654221,7.81651852 C25.1477273,7.09866667 25.6112013,6.52259259 26.4172078,6.38325926 C26.7516234,6.32377778 26.8725649,6.85748148 26.5081169,6.91696296 C25.9943182,7.00007407 25.7280844,7.31051852 25.7962662,7.73096296 C25.9228896,8.51155556 27.3506494,9.79651852 30.875,9.73948148 C30.875,9.73622222 30.8741883,9.73459259 30.8725649,9.73296296 C31.9034091,9.70118519 33.0194805,9.21311111 33.0194805,9.21311111 C33.0194805,9.21311111 31.3969156,8.87903704 30.7378247,8.40725926 C30.711039,8.38933333 32.1534091,7.37081481 32.3060065,6.95281481 C30.875,7.08481481 29.5064935,7.0457037 28.2905844,6.84118519 C27.5982143,6.48592593 27.012987,5.9897037 26.6290584,5.45192593 C26.5616883,3.43851852 25.5097403,3.21933333 24.8660714,3.21933333 C24.2232143,3.21933333 23.4496753,4.01622222 22.7702922,4.40977778 C23.211039,4.89133333 24.0673701,5.23274074 24.0519481,6.41666667 C24.0194805,9.35 25.4431818,10.1387407 26.2897727,10.3147407 C26.3246753,11.5834074 26.0186688,12.5921481 25.5097403,13.5112593 C26.3181818,13.7491852 27.075487,12.9971111 27.3409091,12.6801481 C27.7483766,13.2065185 28.1891234,13.5112593 29.1712662,13.7304444 C28.7654221,13.2497037 28.4261364,11.8482222 28.4586039,10.7971111 C29.2045455,11.1914815 30.9017857,12.8977037 31.6461039,13.9928148 C31.6810065,13.6432593 31.6461039,12.6801481 31.5462662,11.8482222 C32.0868506,11.673037 32.6883117,11.338963 33.3977273,10.507037 L33.3977273,10.507037 Z" id="Fill-29" fill="#FFFFFF"></path>
                </g>
            </g>
        </g>
    </g>
</svg>